<?xml version="1.0" encoding="utf-8"?>
<!-- Generator: Adobe Illustrator 18.0.0, SVG Export Plug-In . SVG Version: 6.00 Build 0)  -->
<!DOCTYPE svg PUBLIC "-//W3C//DTD SVG 1.1//EN" "http://www.w3.org/Graphics/SVG/1.1/DTD/svg11.dtd">
<svg version="1.1" id="Layer_1" xmlns="http://www.w3.org/2000/svg" xmlns:xlink="http://www.w3.org/1999/xlink" x="0px" y="0px"
	 viewBox="0 0 268.6 95.9" enable-background="new 0 0 268.6 95.9" xml:space="preserve">
<g>
	<g>
		<path fill="#362C25" d="M93.6,48.4c-0.4,1.6-0.9,2.9-1.4,3.8v21.4h1.6v0.5h-7.4v-0.5H88V28.3c0-1.5,0.5-2.7,1.6-3.7
			c1.1-1,2.3-1.5,3.8-1.5c1.3,0,2.5,0.5,3.6,1.5c1.1,1,1.6,2.2,1.6,3.5v17.6c0,0.7-0.3,1.6-0.9,2.6c-0.6,1-1.3,1.5-2,1.5
			C94.4,50,93.7,49.4,93.6,48.4z M92.2,25v24.7c0.3-0.2,0.5-0.7,0.7-1.6c0.1-0.9,0.2-1.9,0.2-3h0.3c0,1.9,0.3,2.9,1,3.2V25.1
			c0-0.8-0.4-1.1-1.1-1.1C92.6,24,92.2,24.3,92.2,25z"/>
		<path fill="#362C25" d="M111.1,28.3v41.2c0,1.5-0.5,2.8-1.6,3.7c-1.1,1-2.3,1.5-3.8,1.5c-1.4,0-2.6-0.5-3.7-1.5
			c-1.1-1-1.6-2.2-1.6-3.6V28.4c0-1.5,0.5-2.8,1.5-3.7c1-1,2.3-1.5,3.8-1.5c1.4,0,2.7,0.5,3.7,1.5C110.6,25.7,111.1,26.9,111.1,28.3
			z M104.7,25.3v47.2c0,0.9,0.4,1.4,1.1,1.4c0.3,0,0.5-0.1,0.7-0.4c0.2-0.3,0.3-0.6,0.3-0.9V25.4c0-1-0.4-1.5-1.1-1.5
			C105.1,24,104.7,24.4,104.7,25.3z"/>
		<path fill="#362C25" d="M120.2,37.4V25c0-0.7-0.4-1.1-1.1-1.1c-0.7,0-1.1,0.4-1.1,1.1v30.4c0,3.2,0.3,5.8,1,7.9
			c0.4,1.2,1,2.6,1.9,4.2V52.4h-1.2v-0.5h6.6v0.5h-1.2v6.3c0,3.3-0.7,6.8-2,10.5c-1.3,3.7-2.8,5.5-4.4,5.5c-1.4,0-2.6-0.5-3.5-1.5
			c-0.9-1-1.4-2.3-1.4-3.8c0-1.1,0.2-2,0.7-2.7c0.4-0.8,1.1-1.1,1.9-1.1c0.6,0,1,0.2,1.4,0.7c0.4,0.5,0.6,1.1,0.6,1.8
			c0,0.5-0.3,1.3-0.8,2.3c-0.5,1-0.8,1.7-0.8,2.1c0,0.5,0.2,0.8,0.5,1c0.3,0.2,0.7,0.3,1.2,0.3c0.6,0,1.1-0.3,1.7-0.9
			c0.5-0.6,0.8-1.2,0.8-1.9c0-1.4-1.6-4.3-4.8-8.6c-1.5-2.1-2.3-4-2.3-5.7V28.3c0-1.5,0.5-2.7,1.6-3.7c1.1-1,2.3-1.5,3.8-1.5
			c1.4,0,2.6,0.5,3.7,1.5c1.1,1,1.6,2.2,1.6,3.5v9.2h1.2v0.5H119v-0.5H120.2z"/>
		<path fill="#362C25" d="M133.9,24.2h-0.8v-0.5h6.6v0.5h-1.6v49.5h1.6v0.5h-6.6v-0.5h0.8V41.5c-0.4,0.5-0.9,1.4-1.4,2.7
			c-0.5,1.3-0.8,2.4-0.8,3.1v26.4h0.8v0.5h-6.6v-0.5h1.6V53.4c0-1.5,0.9-3.7,2.7-6.7c2-3.3,3.2-6.1,3.7-8.3v-7.9
			c0-1.1-0.4-2.4-1.1-4.1c-0.7-1.6-1.4-2.4-1.8-2.4c-0.3,0-0.5,0.2-0.7,0.7c-0.1,0.5-0.2,1-0.2,1.6c0,0.7,0.3,1.7,0.9,3
			c1.3,2.9,2,4.6,2,5c0,1.7-0.4,3.3-1.3,4.9c-0.6,1.1-1.7,2.5-3.2,4l-0.4-0.4c0.7-0.8,1.3-1.5,1.7-2.2c0.4-0.7,0.6-1.3,0.6-1.9
			c0-1-0.3-2.1-0.9-3.3c-1.3-2.8-2-4.8-2-6.2c0-1.7,0.3-3.1,0.8-4.2c0.5-1.1,1.2-1.6,1.9-1.6c1.1,0,1.9,0.4,2.5,1.3
			c0.4,0.5,0.7,1.5,1.2,2.8V24.2z"/>
		<path fill="#362C25" d="M81,24.2h-0.8v-0.5h6.6v0.5h-1.6v49.5h1.6v0.5h-6.6v-0.5H81V51.2c-0.5,0.6-1,1.3-1.3,1.9
			c-0.6,1-0.9,1.9-0.9,2.6v17.9h0.8v0.5h-6.6v-0.5h1.6V59.9c0-1.3,0.4-2.5,1.3-3.7c0.5-0.7,1.5-1.7,2.9-3.1c-1.1,0.1-2.1,0-2.8-0.4
			c-1-0.5-1.4-1.5-1.4-2.8c0-1.6,1.1-3.8,3.2-6.5c2.1-2.7,3.2-4.6,3.2-5.5v-7.4c0-1.1-0.4-2.4-1.1-4.1c-0.7-1.6-1.4-2.4-1.8-2.4
			c-0.3,0-0.5,0.2-0.7,0.6c-0.1,0.4-0.2,0.9-0.2,1.5c0,0.8,0.5,2.2,1.4,4.2c0.9,2,1.4,3.3,1.4,3.9c0,1.7-0.4,3.3-1.3,4.9
			c-0.6,1.1-1.7,2.5-3.2,4l-0.4-0.4c0.7-0.8,1.3-1.5,1.7-2.2c0.4-0.7,0.6-1.3,0.6-1.9c0-1-0.3-2.1-0.9-3.3c-1.3-2.8-2-4.8-2-6.2
			c0-1.7,0.3-3.1,0.8-4.2c0.5-1.1,1.2-1.6,1.9-1.6c1.1,0,1.9,0.4,2.5,1.3c0.4,0.5,0.7,1.5,1.2,2.8V24.2z M81,50.3v-9.8
			c-1.4,2.1-2.2,4-2.2,5.7v4.1c0,0.3,0.1,0.6,0.3,0.8c0,0.1,0.2,0.2,0.4,0.3c0.2,0,0.5-0.2,0.8-0.5C80.7,50.7,80.9,50.5,81,50.3z"/>
		<path fill="#362C25" d="M160.2,43.2H160l-0.2,1.2c0,1.1,0.6,2.2,1.9,3.3c1.3,1.2,2.6,1.7,3.9,1.7v24.2h1.6v0.5h-13.8v-0.5h1.6v-45
			c0-1.5,0.5-2.8,1.5-3.8c1-1.1,2.3-1.6,3.8-1.6c1.4,0,2.6,0.5,3.7,1.6c1.1,1.1,1.6,2.3,1.6,3.8v14.6c0,0.7-0.2,1.3-0.5,1.9
			c-0.5,0.8-1.1,1.1-1.9,1.1c-1,0-1.7-0.3-2.1-0.8C160.6,44.9,160.3,44.2,160.2,43.2z M159.2,25.3v18.4h0.3l0.5-3.8h0.3
			c0,1,0.1,2,0.3,2.9c0.2,0.9,0.4,1.4,0.8,1.5V25.4c0-1-0.4-1.5-1.1-1.5C159.6,24,159.2,24.4,159.2,25.3z M159.2,45.7v28h2.2V48.4
			c-0.6-0.7-1.1-1.2-1.4-1.5C159.7,46.5,159.4,46.1,159.2,45.7z"/>
		<path fill="#362C25" d="M173,24.2v22.2h2.2V24.2h-0.8v-0.5h6.6v0.5h-1.6v49.5h1.6v0.5h-6.6v-0.5h0.8V47.2H173v26.5h0.8v0.5h-6.6
			v-0.5h1.6V24.2h-1.6v-0.5h6.6v0.5H173z"/>
		<path fill="#362C25" d="M153.4,24.2v-0.5h-6.6v0.5h0.8v3.2c-0.4-1.4-0.8-2.3-1.2-2.8c-0.6-0.9-1.4-1.3-2.5-1.3
			c-0.7,0-1.4,0.5-1.9,1.6c-0.5,1.1-0.8,2.4-0.8,4.2c0,1.3,0.7,3.4,2,6.2c0.6,1.2,0.9,2.3,0.9,3.3c0,0.6-0.2,1.3-0.6,1.9
			c-0.4,0.7-1,1.4-1.7,2.2l0.4,0.4c1.5-1.5,2.5-2.8,3.2-4c0.9-1.6,1.3-3.2,1.3-4.9c0-0.4-0.7-2.1-2-5c-0.6-1.3-0.9-2.2-0.9-3
			c0-0.6,0.1-1.1,0.2-1.6c0.1-0.5,0.4-0.7,0.7-0.7c0.5,0,1.1,0.8,1.8,2.4c0.7,1.6,1.1,3,1.1,4.1v7.9c-0.4,2.2-1.7,5-3.7,8.3
			c-1.8,3-2.7,5.2-2.7,6.7v20.3h-1.6v0.5h6.6v-0.5h-0.8V57.6l2.2-5.2v21.3h-0.8v0.5h6.6v-0.5h-1.6V24.2H153.4z M145.5,54.3v-7
			c0-0.8,0.3-1.8,0.8-3.1c0.5-1.3,1-2.2,1.4-2.7v7.7L145.5,54.3z"/>
		<path fill="#362C25" d="M194.7,24.2v-0.5h-6.6v0.5h0.8v3.2c-0.4-1.4-0.8-2.3-1.2-2.8c-0.6-0.9-1.4-1.3-2.5-1.3
			c-0.7,0-1.4,0.5-1.9,1.6c-0.5,1.1-0.8,2.4-0.8,4.2c0,1.3,0.7,3.4,2,6.2c0.6,1.2,0.9,2.3,0.9,3.3c0,0.6-0.2,1.3-0.6,1.9
			c-0.4,0.7-1,1.4-1.7,2.2l0.4,0.4c1.5-1.5,2.5-2.8,3.2-4c0.9-1.6,1.3-3.2,1.3-4.9c0-0.4-0.7-2.1-2-5c-0.6-1.3-0.9-2.2-0.9-3
			c0-0.6,0.1-1.1,0.2-1.6c0.1-0.5,0.4-0.7,0.7-0.7c0.5,0,1.1,0.8,1.8,2.4c0.7,1.6,1.1,3,1.1,4.1v7.9c-0.4,2.2-1.7,5-3.7,8.3
			c-1.8,3-2.7,5.2-2.7,6.7v20.3h-1.6v0.5h6.6v-0.5h-0.8V57.6l2.2-5.2v21.3h-0.8v0.5h6.6v-0.5h-1.6V24.2H194.7z M186.7,54.3v-7
			c0-0.8,0.3-1.8,0.8-3.1c0.5-1.3,1-2.2,1.4-2.7v7.7L186.7,54.3z"/>
	</g>
	<g>
		<g>
			<g>
				<path fill="#362C25" d="M66.3,58.3c0.3,2.9,0,5.9-1.4,8.5c-1.3,2.4-3.1,3.9-5.1,5.6c-1.2,1.1-2.4,3-1.4,4.6
					c0.8,1.3,2.4,1.7,3.8,1.4c1.5-0.3,2.9-1.3,3.2-2.8c0.3-1.4-0.4-2.9-1.9-3.2c-3.4-0.5-2.7,4.5-0.1,3.5c0.2-0.1,0.2-0.5-0.1-0.5
					c-0.6,0.1-1-0.1-1.4-0.6c0.1-1.7,0.7-2.2,1.8-1.3c1.1,0.2,1.5,0.8,1.1,2c-0.1,0.6-0.4,1.1-0.9,1.4c-1.2,1.1-3.8,1.4-4.8-0.2
					c-1.6-2.6,3.3-5.3,4.6-7c2.6-3.2,3.7-7.5,2.9-11.5C66.6,58.1,66.3,58.2,66.3,58.3L66.3,58.3z"/>
			</g>
			<g>
				<path fill="#362C25" d="M66,58.8c0.9,4.6-1.4,8.8-5,11.6c-1.6,1.3-3.4,2.3-5.2,3.2c-1.3,0.7-2.8,1.4-3.5,2.8
					c-0.7,1.5,0.1,4,2.1,3.6c1.5-0.3,1.8-2.8,0.2-3c-0.3,0-0.5,0.3-0.2,0.5c-1.5,1.2-2,1.2-1.6-0.1c0-0.6,0.2-1.2,0.7-1.6
					c0.5-0.6,1.3-0.9,2-1.3c0.9-0.5,1.8-0.9,2.7-1.5c1.9-1.1,3.7-2.4,5.1-4.1c2.5-2.8,3.8-6.6,2.8-10.2C66.2,58.5,65.9,58.6,66,58.8
					L66,58.8z"/>
			</g>
			<g>
				<path fill="#362C25" d="M19.6,57.7c-1.5-0.3-2.1,0.9-2.1-0.9c0-0.8,0.5-1.6,1.1-2.1c1.1-0.8,2.9-0.4,3.8,0.5c1.9,2,1,5-0.9,6.6
					c-1.5,1.2-3.6,1.8-5.4,1c-2.2-0.9-3-3.3-2.9-5.5c0.2-3.9,3.1-7.1,6.9-7.8c4.2-0.8,7.8,1.8,10.1,5.1c3.8,5.4,5.4,12,10.7,16.3
					c4.4,3.5,10.6,4.4,15.8,2.2c5.8-2.4,9.5-8.3,9.5-14.5c0-0.4-0.5-0.4-0.5,0C65.6,69.8,53.5,77.4,43.5,72
					c-4.8-2.6-7.5-7.4-9.8-12.1c-2-4-4.2-8.4-8.5-10.3c-3.5-1.5-7.8-0.6-10.3,2.2c-2.3,2.6-3.4,7-1.2,10c1.9,2.7,5.8,2.6,8.2,0.5
					c2.4-2,3.2-6.4,0.1-8.1c-2.8-1.6-6.7,1.5-4.4,4.4c0.6,0.8,2.2,1.5,2.9,0.5c0.6-0.8,0.1-1.7-0.8-1.8
					C19.4,57.3,19.4,57.7,19.6,57.7L19.6,57.7z"/>
			</g>
			<g>
				<path fill="#362C25" d="M50.5,74.1c-6.1,1.6-10.8-2.5-14.7-6.7c-1.9-2-5.8-5.8-8.4-2.6c-1.5,1.7,0.3,5.1,2.5,3.7
					c2.1-1.3-0.4-4.1-1.7-2.4c-0.2,0.2,0.1,0.4,0.3,0.3c-1,1.3-1.2,1.2-0.7-0.3c-0.1-0.8,0.2-1.4,0.9-1.7c1.1-0.5,2.4-0.3,3.4,0.2
					c1.1,0.6,1.9,1.5,2.7,2.3c1.6,1.7,3.1,3.3,4.9,4.7c3.1,2.4,7.2,4,10.9,2.4C50.7,74.2,50.6,74.1,50.5,74.1L50.5,74.1z"/>
			</g>
			<g>
				<path fill="#362C25" d="M15.7,51c-2.8,3.3-6.4,7-11.3,5.8c-3-0.7-5.1-4.1-2.5-6.6c1.2-1.2,3.4-1.4,4.6,0
					c0.4,0.5,0.7,1.3,0.7,1.9c0,0.8-0.3,1.3-0.9,1.7c-0.9,1.1-1.6,0.5-1.9-1.8c0.2-0.2-0.1-0.5-0.3-0.4c-1.1,0.5-1.3,2-0.4,2.9
					c1,1,2.8,0.5,3.5-0.5c2.6-3.3-2.1-6.8-5.1-4.8c-1.5,1-2.3,2.8-2,4.6c0.4,2.1,2.2,3.4,4.1,3.8C9,58.6,13.6,55.2,15.7,51
					C15.8,51.1,15.7,51,15.7,51L15.7,51z"/>
			</g>
			<g>
				<path fill="#362C25" d="M15.5,51.7c-1.1,0.6-2.3,1.4-3.7,1.1C10.9,52.6,10,52,10,51c-0.1-0.3,0-0.6,0.3-0.8
					c0.2-0.5,0.5-0.6,1-0.4c0.7,0,0.9,0.1,1.3,0.6c0.2,0.2,0.5-0.1,0.4-0.3c-1-2.2-4.4-0.6-3.5,1.6c1.1,2.8,4.5,1.4,6.1,0.1
					C15.8,51.7,15.6,51.6,15.5,51.7L15.5,51.7z"/>
			</g>
			<g>
				<path fill="#362C25" d="M35.8,63.9c-0.9-4.4,0.3-9,3.8-11.9c3.9-3.4,10.3-3.4,13.7,0.7c3.3,4,1.6,11.9-4.5,11.9
					c-3.2,0-5.4-3.6-4.1-6.5c0.7-1.5,2.3-2.5,3.9-1.9c1.1,0.4,1.8,1.5,1.6,2.7c-0.1,0.2-0.2,0.5-0.3,0.7c-0.8,1.5-1.7,1-2.5-1.2
					c0.3-0.2,0-0.8-0.3-0.6c-1.7,1-0.9,3.4,1,3.5c2.1,0.2,3.3-2.3,2.6-4.1c-0.8-1.9-3.5-2.3-5.1-1.2c-2.1,1.3-2.5,4.2-1.5,6.3
					c1.3,2.7,4.3,3.7,7,2.5c2.4-1,4-3.4,4.4-5.9c1-6.2-5.2-10.7-11-9.8c-6.8,1.1-11.2,8.4-9.2,14.9C35.6,64.1,35.8,64,35.8,63.9
					L35.8,63.9z"/>
			</g>
			<g>
				<path fill="#362C25" d="M51.2,64.3c-1.8,0.5-3.2,2-3.1,3.9c0.1,1.8,1.6,3.4,3.5,3.2c1.5-0.2,2.9-1.8,1.9-3.2
					c-0.8-1.1-2.6-0.8-2.6,0.6c0,0.3,0.4,0.3,0.5,0.1c1.4-0.6,2-0.4,1.7,0.5c0,0.5-0.2,0.9-0.7,1.1c-0.3,0.2-0.8,0.3-1.2,0.3
					c-1.3,0-2.3-1-2.5-2.2c-0.3-1.9,1-3.3,2.6-4.1C51.4,64.5,51.3,64.3,51.2,64.3L51.2,64.3z"/>
			</g>
			<g>
				<path fill="#362C25" d="M65.7,60.7c0.2,3.2-1.4,6.2-4.6,7.2c-2.1,0.6-5.1-0.7-3.5-3.2c0.3-0.7,0.9-1.1,1.8-1.2
					c1-0.1,1.4,0.4,1.4,1.4c0.6,0.9,0.4,1.5-0.7,1.7c-0.4,0-0.7-0.2-0.9-0.5c-0.2-0.2-0.5,0-0.4,0.3c0.5,2.3,3.6,0.4,3.3-1.5
					c-0.4-2.9-4.3-2.3-5.3-0.2c-0.5,1.1-0.5,2.6,0.4,3.6c1.1,1.2,3,0.9,4.4,0.5c3.3-1.2,5.1-4.5,4.4-7.9
					C65.9,60.5,65.6,60.6,65.7,60.7L65.7,60.7z"/>
			</g>
			<g>
				<path fill="#362C25" d="M52.8,51.9c1.4,3,5.3,6.7,9,6c3-0.6,4-4.7,1.2-6.2c-2.3-1.3-6.2,1.4-4,3.8c1.7,1.8,4.5-0.9,2.3-2.3
					c-0.2-0.1-0.4,0.2-0.2,0.3c-2.2,2-2.5,1.6-0.9-1.4c0.4-0.1,0.9-0.2,1.3-0.3c1.2,0,2.3,0.9,2.6,2c0.7,2.7-2.3,3.8-4.5,3.2
					c-2.8-0.8-4.9-3.1-6.6-5.3C52.9,51.7,52.8,51.8,52.8,51.9L52.8,51.9z"/>
			</g>
			<g>
				<path fill="#362C25" d="M52.4,51.4c0.8,0.4,1.9,0.5,2.7,0.1c0.6-0.3,1.1-1,1-1.7c-0.2-1.6-2.5-1.8-2.9-0.2
					c-0.1,0.3,0.3,0.4,0.4,0.2c0.3-0.5,0.8-0.9,1.4-0.6c0.5,0.3,0.6,1,0.3,1.4c-0.6,0.9-1.8,0.7-2.8,0.6
					C52.4,51.1,52.3,51.3,52.4,51.4L52.4,51.4z"/>
			</g>
			<g>
				<path fill="#362C25" d="M34.3,56.5c1.1-0.8,1.8-2.2,1.7-3.6c-0.2-2.5-3.1-4.2-1.5-6.9c0.1-0.2-0.2-0.4-0.4-0.3
					c-1.1,0.9-0.9,2.4-0.4,3.6c0.3,0.8,0.9,1.4,1.2,2.2c0.8,1.7,0.5,3.4-0.8,4.8C34,56.3,34.2,56.6,34.3,56.5L34.3,56.5z"/>
			</g>
			<g>
				<path fill="#362C25" d="M34,45.8c-1.5,2-2.1,4.5-1.9,6.9c0.1,1.5,0.5,3.6,2.1,4c0.3,0.1,0.4-0.3,0.2-0.4
					C31,54.5,32.8,48.4,34,45.8C34.1,45.8,34,45.8,34,45.8L34,45.8z"/>
			</g>
			<g>
				<path fill="#362C25" d="M10.8,57.2c0.6,3.4-4.3,5.9-2.5,9.2c0.1,0.2,0.4,0.1,0.4-0.2c-1.1-3.5,3.7-5.7,2.3-9.1
					C11,57.1,10.8,57.1,10.8,57.2L10.8,57.2z"/>
			</g>
			<g>
				<path fill="#362C25" d="M8.3,66.4c0.5-1.3-0.1-2.2-0.5-3.5c-0.8-2.8,1.5-3.9,3.4-5.2c0.2-0.1,0.1-0.4-0.1-0.3
					c-1.4,0.5-3,1.5-3.7,2.9c-1,2.2,1,3.9,0.7,6.1C8,66.5,8.2,66.5,8.3,66.4L8.3,66.4z"/>
			</g>
			<g>
				<path fill="#362C25" d="M10.8,58c-0.7,0.7-1.2,1.6-1.7,2.4c-0.5,0.8-1.1,1.7-1.4,2.7c-0.1,0.3,0.3,0.5,0.5,0.2
					c0.6-0.8,0.9-1.7,1.4-2.6c0.5-0.9,1-1.7,1.5-2.5C11.2,58.1,10.9,57.9,10.8,58L10.8,58z"/>
			</g>
			<g>
				<path fill="#362C25" d="M8.3,63.5c-0.7-2,0.2-3.9,2.2-4.7c-0.1-0.2-0.2-0.3-0.4-0.5c-0.6,1-1.2,1.9-1.9,2.9
					c0.2,0.1,0.3,0.2,0.5,0.3c0.4-0.8,0.9-1.5,1.3-2.3c0.2-0.3-0.2-0.6-0.5-0.4c-0.8,0.7-1.3,1.6-1.5,2.7c-0.1,0.3,0.4,0.6,0.6,0.2
					c0.5-1,1.1-1.9,2-2.7c-0.2-0.1-0.3-0.1-0.5-0.2C10,60,9.5,60.8,8.8,61.6c0.1,0.1,0.3,0.3,0.4,0.4c0.8-0.9,1.3-1.9,1.5-3
					c0.1-0.3-0.4-0.5-0.6-0.2c-0.6,1.2-1.2,2.3-1.8,3.5c0.2,0.1,0.3,0.2,0.5,0.3c0.6-1.4,1.2-2.7,1.8-4.1c0.1-0.2-0.1-0.4-0.3-0.4
					c-2.2,0.6-2.4,3-2.3,4.9c0.2,0,0.4,0,0.5,0c-0.1-0.8-0.1-1.5,0.1-2.2c0.1-0.3-0.3-0.4-0.4-0.2C8,61.1,7.9,61.5,8,62.1
					c0,0.2,0.3,0.2,0.4,0.1c0.3-0.4,0.6-0.8,0.9-1.2c0.1-0.1-0.1-0.3-0.3-0.2c-0.3,0.4-0.7,0.8-1,1.2c0.1,0,0.3,0.1,0.4,0.1
					c0.1-0.4,0.2-0.7,0.3-1.1c-0.1-0.1-0.3-0.2-0.4-0.2c-0.2,0.8-0.2,1.5-0.2,2.3c0,0.3,0.5,0.4,0.5,0c0-1.6-0.1-3.9,1.9-4.4
					c-0.1-0.1-0.2-0.3-0.3-0.4c-0.6,1.3-1.3,2.7-1.9,4c-0.2,0.3,0.3,0.7,0.5,0.3c0.6-1.2,1.2-2.3,1.8-3.5c-0.2-0.1-0.4-0.2-0.6-0.2
					c-0.3,1-0.7,1.9-1.4,2.8c-0.2,0.3,0.1,0.7,0.4,0.4c0.9-0.8,1.3-1.9,1.4-3.1c0-0.3-0.3-0.4-0.5-0.2c-0.9,0.8-1.6,1.7-2.1,2.8
					c0.2,0.1,0.4,0.2,0.6,0.2c0.2-1,0.6-1.8,1.4-2.4c-0.2-0.1-0.3-0.2-0.5-0.4c-0.4,0.8-0.9,1.5-1.3,2.3c-0.2,0.3,0.3,0.6,0.5,0.3
					c0.6-1,1.2-1.9,1.9-2.9c0.2-0.2-0.1-0.5-0.4-0.5c-2.3,0.7-3.4,3.2-2.4,5.4C8,63.8,8.3,63.7,8.3,63.5L8.3,63.5z"/>
			</g>
			<g>
				<path fill="#362C25" d="M34.4,55.8c0.7-1.3,0.8-2.6,0.4-4c-0.1-0.4-0.7-0.2-0.6,0.1c0.3,0.9,0.3,1.6,0.1,2.5
					c-0.1,0.4,0.5,0.6,0.6,0.2c0.2-0.9,0.2-1.7-0.1-2.7c-0.1-0.3-0.6-0.3-0.6,0.1c0,0.9,0.1,1.8,0.4,2.7c0.1,0.3,0.5,0.3,0.6,0
					c0.3-1.1,0.3-2-0.2-3c-0.2-0.3-0.6-0.1-0.6,0.2c-0.1,0.9,0,1.5,0.4,2.3c0.1,0.2,0.5,0.2,0.6-0.1c0.2-0.7,0.1-2.9-1.1-2.8
					c-1.3,0.1-0.4,3.1-0.3,3.7c0.1,0.4,0.7,0.2,0.6-0.2c-0.2-0.9-0.4-1.8-0.6-2.8c-0.1-0.3-0.6-0.3-0.6,0.1c0,1.1,0.1,2.2,0.4,3.3
					c0.1,0.4,0.7,0.2,0.6-0.2c-0.3-1.2-0.6-2.5-0.9-3.7c-0.1-0.3-0.7-0.3-0.6,0.1c0.1,1.2,0.2,2.4,0.4,3.7c0.2-0.1,0.4-0.1,0.6-0.2
					c-0.7-1.6-0.9-3.2-0.7-5c-0.2,0-0.4-0.1-0.7-0.1c-0.1,1.7,0,3.4,0.3,5c0.1,0.4,0.7,0.3,0.6-0.1c-0.1-1.6-0.2-3.2-0.1-4.8
					c-0.2,0-0.4,0.1-0.6,0.1c0.3,0.9,0.6,1.6,1.1,2.4c0.2,0.3,0.6,0.1,0.6-0.2c-0.1-0.9-0.4-1.7-0.8-2.6c-0.2,0.1-0.4,0.2-0.5,0.3
					c0.4,0.6,0.8,1.1,1.2,1.7c0.2,0.3,0.7,0.1,0.6-0.2c-0.3-0.8-0.7-1.6-1.2-2.3c-0.2-0.3-0.7,0-0.5,0.3c0.4,0.7,0.8,1.3,1.2,2
					c0.1,0.2,0.6,0.1,0.5-0.2c-0.3-0.8-0.6-1.4-1.1-2.1c-0.2-0.2-0.4,0-0.4,0.2c0.1,0.5,0.1,1,0.2,1.4c0.1,0,0.3-0.1,0.4-0.1
					c-0.1-0.8-0.3-1.6-0.4-2.4c0-0.2-0.4-0.2-0.4,0c-0.1,0.4-0.2,0.9-0.3,1.3c0.2,0,0.3,0.1,0.5,0.1c0.1-0.5,0.2-1.1,0.3-1.6
					c0-0.3-0.4-0.4-0.4-0.1C33,48.5,33,48.8,32.9,49c0.1,0,0.3,0,0.4,0.1c0-0.3,0-0.7,0.1-1c0-0.3-0.4-0.3-0.4-0.1
					c-0.9,2.6-0.7,5.2,0.4,7.7c0.2-0.1,0.3-0.2,0.5-0.3c-0.5-1-0.8-1.9-0.7-3c-0.2,0-0.4,0-0.6,0c0.1,0.9-0.1,3.5,1.1,3.8
					c1.4,0.3,1.6-1.4,1.5-2.3c0-0.3-0.4-0.4-0.6-0.1c-0.2,0.6-0.4,1.3-0.7,1.9c0.2,0,0.3,0.1,0.5,0.1c0.2-0.6,0.4-1.1,0.5-1.7
					c0.1-0.3-0.4-0.5-0.5-0.1c-0.2,0.6-0.4,1.1-0.6,1.7c-0.1,0.3,0.4,0.5,0.5,0.1c0.2-0.6,0.5-1.3,0.7-1.9c-0.2,0-0.4-0.1-0.6-0.1
					c0.2,0.6,0,0.7-0.6,0.5c-0.6,0.2-0.8,0-0.7-0.5c-0.2-0.4-0.1-1.1-0.2-1.5c0-0.4-0.6-0.4-0.6,0c0,1.2,0.3,2.3,0.8,3.3
					c0.2,0.3,0.6,0,0.5-0.3c-1-2.3-1.2-4.9-0.4-7.3c-0.1,0-0.3,0-0.4-0.1c0,0.3,0,0.7-0.1,1c0,0.3,0.4,0.3,0.4,0.1
					c0.1-0.2,0.2-0.5,0.2-0.7c-0.1,0-0.3-0.1-0.4-0.1c-0.1,0.5-0.2,1.1-0.3,1.6c0,0.3,0.4,0.4,0.5,0.1c0.1-0.4,0.2-0.9,0.3-1.3
					c-0.1,0-0.3,0-0.4,0c0.1,0.8,0.3,1.6,0.4,2.4c0,0.3,0.5,0.2,0.4-0.1c-0.1-0.5-0.1-1-0.2-1.4c-0.1,0.1-0.3,0.2-0.4,0.2
					c0.5,0.6,0.7,1.1,1,1.8c0.2-0.1,0.3-0.1,0.5-0.2c-0.4-0.7-0.8-1.3-1.1-2c-0.2,0.1-0.3,0.2-0.5,0.3c0.5,0.7,0.8,1.4,1.1,2.1
					c0.2-0.1,0.4-0.2,0.6-0.2c-0.4-0.6-0.8-1.1-1.2-1.7c-0.2-0.3-0.7,0-0.5,0.3c0.4,0.8,0.6,1.5,0.8,2.4c0.2-0.1,0.4-0.2,0.6-0.2
					c-0.5-0.7-0.8-1.4-1-2.2c-0.1-0.3-0.6-0.3-0.6,0.1c-0.1,1.6-0.1,3.2,0.1,4.8c0.2,0,0.4-0.1,0.6-0.1c-0.3-1.6-0.4-3.2-0.3-4.9
					c0-0.4-0.6-0.5-0.7-0.1c-0.3,1.9,0,3.7,0.7,5.5c0.1,0.3,0.6,0.1,0.6-0.2c-0.1-1.2-0.2-2.4-0.4-3.7c-0.2,0-0.4,0.1-0.6,0.1
					c0.3,1.2,0.6,2.5,0.9,3.7c0.2-0.1,0.4-0.1,0.6-0.2c-0.3-1-0.4-2-0.4-3.1c-0.2,0-0.4,0.1-0.6,0.1c0.2,0.9,0.4,1.8,0.6,2.7
					c0.2-0.1,0.4-0.1,0.6-0.2c-0.1-0.5-0.5-1.4-0.3-1.8c-0.1-0.4,0-0.4,0.3,0c0.5,0.2,0.5,0.5,0.2,0.9c0.2,0,0.4-0.1,0.6-0.1
					c-0.4-0.7-0.4-1.2-0.4-1.9c-0.2,0.1-0.4,0.1-0.6,0.2c0.4,0.8,0.4,1.7,0.1,2.5c0.2,0,0.4,0,0.6,0c-0.3-0.8-0.4-1.7-0.4-2.5
					c-0.2,0-0.4,0.1-0.6,0.1c0.2,0.8,0.3,1.5,0.1,2.3c0.2,0.1,0.4,0.1,0.6,0.2c0.2-1,0.2-1.8-0.2-2.8c-0.2,0-0.4,0.1-0.6,0.1
					c0.5,1.3,0.4,2.5-0.2,3.7C34,55.8,34.3,56,34.4,55.8L34.4,55.8z"/>
			</g>
			<g>
				<path fill="#362C25" d="M47.7,65.7c-0.5,0.6-1,1.2-1.6,1.7c-0.7,0.5-1.4,0.9-2.1,1.4c-0.2,0.1-0.1,0.5,0.2,0.4
					c1.6-0.4,2.9-2,3.7-3.3C48,65.7,47.8,65.5,47.7,65.7L47.7,65.7z"/>
			</g>
			<g>
				<path fill="#362C25" d="M44.2,68.9c0.1-0.8,0.5-1.5,1.2-2.1c0.6-0.5,1.3-0.6,2.1-0.7c0.2-0.1,0.2-0.4,0-0.4
					c-1.7-0.5-3.5,1.6-3.4,3.2C44,68.9,44.2,69,44.2,68.9L44.2,68.9z"/>
			</g>
			<g>
				<path fill="#362C25" d="M47.1,65.9c-1.1,0.3-1.9,1.1-2.5,2c-0.2,0.2,0.2,0.5,0.4,0.4c0.7-0.4,1.3-0.9,1.9-1.5
					c0.2-0.2,0.1-0.5-0.2-0.5c-0.7,0-1.4,0.5-1.7,1.1c-0.1,0.2,0,0.5,0.3,0.5c0.8-0.1,1.4-0.5,1.8-1.2c0.1-0.3-0.1-0.5-0.3-0.4
					c-0.7,0.1-1.2,0.5-1.5,1c-0.1,0.2,0,0.4,0.2,0.4c0.8,0,1.4-0.6,1.5-1.4c0-0.2-0.2-0.3-0.3-0.3c-0.5,0.2-1,0.4-1.3,0.9
					c-0.1,0.2,0.2,0.4,0.3,0.3c0.3-0.3,0.7-0.5,1.1-0.6c-0.1-0.1-0.2-0.2-0.3-0.3c-0.1,0.5-0.4,0.9-1,0.9c0.1,0.1,0.2,0.3,0.2,0.4
					c0.3-0.4,0.7-0.6,1.1-0.7c-0.1-0.1-0.2-0.3-0.3-0.4c-0.2,0.5-0.7,0.8-1.2,0.9c0.1,0.2,0.2,0.3,0.3,0.5c0.2-0.5,0.6-0.8,1.2-0.8
					c-0.1-0.2-0.1-0.3-0.2-0.5c-0.5,0.6-1.1,1-1.7,1.5c0.1,0.1,0.3,0.3,0.4,0.4c0.5-0.9,1.3-1.5,2.2-2
					C47.4,66.2,47.3,65.9,47.1,65.9L47.1,65.9z"/>
			</g>
			<g>
				<path fill="#362C25" d="M46.8,66.1c-0.8,0.5-1.4,1.1-2.1,1.6c-0.1,0.1,0,0.4,0.2,0.3c0.7-0.5,1.5-1,2.1-1.6
					C47.1,66.2,47,66,46.8,66.1L46.8,66.1z"/>
			</g>
			<g>
				<path fill="#362C25" d="M45.4,66.4c-0.4,0.6-0.9,1.2-1.3,1.8c-0.1,0.2,0.2,0.5,0.4,0.3c0.4-0.5,0.7-1,0.8-1.7
					c0.1-0.2-0.2-0.4-0.4-0.2c-0.3,0.4-0.5,0.8-0.6,1.3c0,0.2,0.2,0.3,0.4,0.1c0.7-0.6,1.4-1.2,2.2-1.7c-0.1,0-0.2,0-0.2,0
					c0.1,0.1,0.1,0.2,0.1,0.3c0,0.1,0.2,0.2,0.3,0.1c0.2-0.3,0.1-0.6-0.2-0.8c-0.1-0.1-0.2,0-0.2,0c-0.7,0.6-1.4,1.2-2.2,1.7
					c0.1,0,0.2,0.1,0.4,0.1c0-0.4,0.2-0.7,0.5-1c-0.1-0.1-0.2-0.1-0.4-0.2c-0.2,0.5-0.5,1-0.8,1.5c0.1,0.1,0.3,0.2,0.4,0.2
					c0.4-0.6,0.8-1.2,1.2-1.8C45.8,66.4,45.5,66.2,45.4,66.4L45.4,66.4z"/>
			</g>
		</g>
		<g>
			<g>
				<path fill="#362C25" d="M66.6,39.4c0.8-3.9-0.3-8.1-2.7-11.3c-1.3-1.8-4.5-3.3-5-5.5c-0.6-2.7,2.5-3.4,4.3-2.5
					c1.2,0.6,1.7,1.4,1.6,2.7c0.1,1.1-0.6,1.6-2,1.6c-1.4-1.4-1.2-2.2,0.6-2.4c0.3,0,0.3-0.4,0.1-0.5c-2.5-1-3.2,4,0.1,3.5
					c1.3-0.2,2.1-1.5,2-2.8c-0.1-1.7-1.6-2.9-3.2-3.2c-1.4-0.3-3.1,0.1-3.8,1.4c-0.9,1.5,0,3.3,1.2,4.4c2,1.9,4,3.3,5.3,5.8
					c1.4,2.7,1.7,5.6,1.4,8.5C66.3,39.5,66.6,39.5,66.6,39.4L66.6,39.4z"/>
			</g>
			<g>
				<path fill="#362C25" d="M66.3,38.9c1-3.7-0.4-7.5-2.8-10.2c-1.4-1.6-3.1-2.8-4.9-3.9c-1-0.6-2-1.1-3-1.6c-0.7-0.4-1.4-0.7-2-1.3
					c-0.2-0.2-0.4-0.5-0.6-0.7c-0.8-1.5-0.3-1.8,1.4-0.9c-0.3,0.2-0.1,0.5,0.2,0.5c1.5-0.2,1.4-2.5,0-3c-2.1-0.7-3.1,2-2.3,3.6
					c0.6,1.3,1.9,2,3.2,2.7c1.9,1,3.8,2,5.5,3.3c3.5,2.8,5.9,7,5,11.6C65.9,39,66.2,39.1,66.3,38.9L66.3,38.9z"/>
			</g>
			<g>
				<path fill="#362C25" d="M19.6,40.3c2.1-0.2,0.4-3.5-1.7-1.7c-2.3,1.9-0.4,5.2,2.2,5.3c3.5,0,4.7-4.1,3.2-6.8
					c-1.6-2.8-5.6-4.4-8.4-2.5c-3,2-2.8,6.5-1.3,9.4c1.8,3.4,5.6,5.3,9.3,4.7c4.3-0.6,7.3-4.4,9.3-8c2.5-4.5,4.3-9.4,8.2-12.9
					c4.6-4.2,11.5-5.2,17.1-2.4c5,2.6,8.2,8,8.2,13.6c0,0.4,0.6,0.4,0.5,0c0-5.4-2.8-10.6-7.5-13.5c-4.8-3-11.3-2.9-16.1,0
					c-5.7,3.4-7.9,9.5-10.9,15C30,43.8,27.5,47,23.7,48c-4.1,1-8.4-1.2-9.9-5.2c-0.7-1.9-0.8-4.3,0.2-6.2c1.3-2.2,4.1-2.7,6.3-1.7
					c2.2,1.1,4,3.8,2.9,6.3c-0.6,1.4-2.1,2.4-3.7,2c-0.8-0.2-1.6-0.8-1.9-1.6c0-0.3-0.1-0.5-0.1-0.8c-0.1-1.4,0.6-1.7,2.1-0.9
					C19.4,40,19.4,40.3,19.6,40.3L19.6,40.3z"/>
			</g>
			<g>
				<path fill="#362C25" d="M50.6,23.4c-3.8-1.6-7.9,0-11,2.4c-1.7,1.3-3.2,2.9-4.7,4.5c-0.9,0.9-1.8,1.9-2.9,2.5
					c-1,0.5-2.3,0.8-3.4,0.2c-0.2-0.2-0.5-0.4-0.7-0.5c-0.9-2.5-0.7-2.9,0.6-1.4c-0.2-0.1-0.5,0.1-0.3,0.3c1.3,1.7,3.8-1,1.7-2.4
					c-2.2-1.5-4,2-2.5,3.7c2.7,3.2,6.6-0.5,8.4-2.6c3.9-4.2,8.6-8.3,14.7-6.7C50.6,23.6,50.7,23.4,50.6,23.4L50.6,23.4z"/>
			</g>
			<g>
				<path fill="#362C25" d="M15.8,46.5c-2.1-4-6.5-7.4-11.2-6.5c-2,0.4-3.9,1.5-4.4,3.6c-0.4,1.8,0.4,3.8,2,4.8
					c3,1.9,7.5-1.2,5.3-4.6c-0.7-1.1-2.5-1.8-3.6-0.8C2.8,44,2.9,45.5,4,46.1c0.2,0.1,0.5-0.2,0.3-0.4c0.3-2.3,1-2.9,1.9-1.8
					C6.8,44.1,7,44.5,7,45c0.3,0.8,0.1,1.8-0.5,2.5c-1.2,1.3-3.4,1.1-4.6,0c-2.6-2.5-0.5-6,2.5-6.6C9.3,39.7,12.8,43.2,15.8,46.5
					C15.7,46.7,15.8,46.6,15.8,46.5L15.8,46.5z"/>
			</g>
			<g>
				<path fill="#362C25" d="M15.7,45.9c-1.6-1.3-5-2.6-6.1,0.1c-0.9,2.2,2.5,3.9,3.5,1.6c0.1-0.2-0.2-0.5-0.4-0.3
					c-0.2,0.2-0.4,0.5-0.7,0.6c-0.8,0.3-1.7-0.1-2-0.9c-0.4-1.1,0.9-2,1.8-2.2c1.4-0.2,2.5,0.5,3.7,1.1
					C15.6,46.1,15.8,45.9,15.7,45.9L15.7,45.9z"/>
			</g>
			<g>
				<path fill="#362C25" d="M35.5,33.7c-1.8,5.6,1.2,12,6.6,14.2c5.5,2.3,12.8-0.5,13.6-6.9c0.3-2.7-0.8-5.6-3-7.2
					c-2.1-1.6-5.1-2-7.2-0.2c-2,1.8-2.5,5-0.9,7.1c1.2,1.6,3.8,2.1,5.4,0.7c1.6-1.4,1.2-4.5-1-5c-2.2-0.6-3.8,2.2-1.8,3.4
					c0.4,0.2,0.7-0.3,0.3-0.6c0.9-2,1.6-2.5,2.2-1.5c0.3,0.3,0.4,0.6,0.5,1c0.2,1-0.2,1.8-1.1,2.4c-1.5,0.9-3.4,0.3-4.3-1.2
					c-1.7-2.9,0.5-6.9,3.9-6.9c2.8,0,5.2,2.3,6,4.8c0.8,2.5,0.1,5.1-1.5,7.1c-3.4,4.2-9.8,4-13.7,0.7c-3.5-2.9-4.7-7.6-3.8-11.9
					C35.8,33.7,35.6,33.6,35.5,33.7L35.5,33.7z"/>
			</g>
			<g>
				<path fill="#362C25" d="M51.3,33.1c-1.6-0.7-3-2.2-2.6-4c0.2-1.1,1-2,2.2-2.2c0.5-0.1,1,0,1.5,0.2c0.2,0.2,0.4,0.4,0.6,0.6
					c0.6,1.3,0,1.6-1.6,1c-0.1-0.3-0.5-0.2-0.5,0.1c0,1.3,1.7,1.8,2.5,0.8c1.2-1.4-0.3-3.2-1.8-3.4c-1.8-0.2-3.3,1.2-3.5,3
					c-0.2,2,1.2,3.6,3.1,4.1C51.3,33.4,51.4,33.2,51.3,33.1L51.3,33.1z"/>
			</g>
			<g>
				<path fill="#362C25" d="M65.9,37c0.7-3.4-1.1-6.7-4.4-7.9c-1.3-0.5-3.1-0.7-4.3,0.3c-1,0.9-1.2,2.5-0.6,3.7
					c1,2.2,4.9,2.7,5.3-0.2c0.3-2-2.8-3.8-3.3-1.5c-0.1,0.2,0.3,0.5,0.5,0.3c0.5-0.5,1.4-0.6,1.9,0.1c0.3,1.6-0.3,2.4-1.6,2.5
					c-0.5-0.2-1-0.4-1.4-0.6c-0.8-0.6-1.1-2.3-0.5-3.2c0.8-1.2,2.5-1,3.6-0.7c3.2,0.9,4.8,4,4.6,7.2C65.7,37.1,65.9,37.1,65.9,37
					L65.9,37z"/>
			</g>
			<g>
				<path fill="#362C25" d="M52.9,45.8c1.6-2.2,3.5-4.2,6.1-5.1c1.8-0.7,4.4-0.5,4.9,1.8c0.3,1.2-0.3,2.4-1.3,3
					c-1.2,0.6-3.6,0.7-1.6-1.4c-0.2,0.2,0,0.4,0.2,0.3c2.4-1.4-1-4.4-2.5-1.9c-1.6,2.6,2.1,4.7,4.2,3.5c2.8-1.6,1.8-5.6-1.2-6.2
					c-3.7-0.7-7.6,3-9,6C52.8,45.9,52.9,45.9,52.9,45.8L52.9,45.8z"/>
			</g>
			<g>
				<path fill="#362C25" d="M52.5,46.5c1-0.1,2.2-0.4,2.8,0.6c0.3,0.5,0.3,1.1-0.3,1.4c-0.6,0.3-1.1-0.1-1.4-0.6
					c-0.1-0.2-0.5-0.1-0.4,0.2c0.3,1.6,2.7,1.4,2.9-0.2c0.1-0.7-0.4-1.4-1-1.7c-0.8-0.5-1.9-0.3-2.7,0.1
					C52.3,46.3,52.4,46.5,52.5,46.5L52.5,46.5z"/>
			</g>
			<g>
				<path fill="#362C25" d="M34.2,41.4c1.1,1.2,1.6,2.7,1,4.3c-0.3,1-1,1.7-1.4,2.7c-0.5,1.2-0.7,2.7,0.4,3.6c0.2,0.2,0.5,0,0.3-0.3
					c-1.5-2.7,1.3-4.4,1.5-6.9c0.1-1.4-0.5-2.8-1.7-3.6C34.2,41.1,34,41.3,34.2,41.4L34.2,41.4z"/>
			</g>
			<g>
				<path fill="#362C25" d="M34.1,51.8c-1.3-2.5-3-8.6,0.4-10.4c0.2-0.1,0.1-0.5-0.2-0.4c-1.7,0.4-2,2.5-2.1,4
					C31.9,47.3,32.5,49.8,34.1,51.8C34,51.9,34.1,51.8,34.1,51.8L34.1,51.8z"/>
			</g>
			<g>
				<path fill="#362C25" d="M11,40.5c1.4-3.4-3.4-5.6-2.3-9.1c0.1-0.2-0.3-0.4-0.4-0.2c-1.8,3.3,3.1,5.8,2.5,9.2
					C10.8,40.5,11,40.6,11,40.5L11,40.5z"/>
			</g>
			<g>
				<path fill="#362C25" d="M8.1,31.3c0.3,2.2-1.7,3.9-0.7,6.1c0.7,1.4,2.2,2.4,3.7,2.9c0.2,0.1,0.3-0.2,0.1-0.3
					c-1.9-1.3-4.3-2.4-3.4-5.2c0.4-1.3,1-2.2,0.5-3.5C8.2,31.1,8,31.2,8.1,31.3L8.1,31.3z"/>
			</g>
			<g>
				<path fill="#362C25" d="M11.1,39.4c-0.5-0.9-1-1.7-1.5-2.5c-0.5-0.8-0.8-1.8-1.4-2.6c-0.2-0.2-0.6-0.1-0.5,0.2
					c0.3,0.9,0.8,1.8,1.4,2.7c0.5,0.8,1.1,1.7,1.7,2.4C11,39.8,11.2,39.6,11.1,39.4L11.1,39.4z"/>
			</g>
			<g>
				<path fill="#362C25" d="M7.9,34c-1,2.2,0,4.7,2.4,5.4c0.3,0.1,0.5-0.2,0.4-0.5c-0.7-0.9-1.3-1.9-1.9-2.9c-0.2-0.3-0.7,0-0.5,0.3
					c0.4,0.8,0.9,1.5,1.3,2.3c0.2-0.1,0.3-0.2,0.5-0.4c-0.7-0.7-1.2-1.4-1.4-2.4C8.4,36,8.2,36,8.1,36.1c0.5,1.1,1.2,2,2.1,2.8
					c0.2,0.2,0.6,0.1,0.5-0.2c-0.1-1.2-0.6-2.2-1.4-3.1c-0.3-0.3-0.7,0.1-0.4,0.4c0.7,0.8,1.1,1.7,1.4,2.8c0.2-0.1,0.4-0.2,0.6-0.2
					c-0.6-1.2-1.2-2.3-1.8-3.5c-0.2-0.4-0.7,0-0.5,0.3c0.6,1.4,1.2,2.7,1.9,4c0.1-0.1,0.2-0.3,0.3-0.4c-2-0.5-2-2.8-1.9-4.4
					c0-0.4-0.5-0.3-0.5,0c-0.1,0.8,0,1.5,0.2,2.3c0.1-0.1,0.3-0.2,0.4-0.2c-0.1-0.4-0.2-0.7-0.3-1.1c-0.1,0-0.2,0.1-0.4,0.1
					c0.3,0.4,0.7,0.8,1,1.2c0.1,0.1,0.4,0,0.3-0.2c-0.3-0.4-0.6-0.8-0.9-1.2c-0.1-0.1-0.4-0.2-0.4,0.1c-0.1,0.6,0,1,0.3,1.5
					c0.2,0.2,0.5,0.1,0.4-0.2c-0.2-0.7-0.2-1.5-0.1-2.2c-0.2,0-0.4,0-0.5,0C8,36.6,8.2,39,10.5,39.6c0.2,0.1,0.4-0.2,0.3-0.4
					c-0.6-1.4-1.2-2.7-1.8-4.1c-0.2,0.1-0.3,0.2-0.5,0.3c0.6,1.2,1.2,2.3,1.8,3.5c0.2,0.3,0.6,0.1,0.6-0.2c-0.3-1.2-0.8-2.1-1.6-3
					c-0.1,0.1-0.3,0.3-0.4,0.4c0.7,0.7,1.2,1.6,1.2,2.6c0.2-0.1,0.3-0.1,0.5-0.2c-0.9-0.8-1.5-1.7-2-2.7C8.4,35.5,8,35.7,8,36
					c0.2,1.1,0.7,2,1.5,2.7c0.3,0.2,0.6-0.1,0.5-0.4c-0.4-0.8-0.9-1.5-1.3-2.3c-0.2,0.1-0.3,0.2-0.5,0.3c0.6,1,1.3,1.9,1.9,2.9
					c0.1-0.2,0.2-0.3,0.4-0.5c-1.9-0.7-2.8-2.7-2.2-4.7C8.3,34,8,33.8,7.9,34L7.9,34z"/>
			</g>
			<g>
				<path fill="#362C25" d="M34.1,42.1c0.6,1.2,0.6,2.4,0.2,3.7c0.2,0.1,0.4,0.1,0.6,0.2c0.3-1,0.4-1.8,0.2-2.8
					c-0.2,0.1-0.4,0.1-0.6,0.2c0.2,0.8,0.1,1.5-0.1,2.3c0.2,0,0.4,0.1,0.6,0.1c0-0.9,0.1-1.7,0.4-2.5c-0.2,0-0.4,0-0.6,0
					c0.3,0.9,0.3,1.6-0.1,2.5c0.2,0,0.4,0.1,0.6,0.1c-0.1-0.7,0-1.3,0.4-1.9c-0.2,0-0.4-0.1-0.6-0.1c0,0.2,0.1,0.5,0.1,0.7
					c-0.6,0.6-0.8,0.7-0.7,0.2c-0.1-0.4,0.2-1.4,0.3-1.8c-0.2-0.1-0.4-0.1-0.6-0.2c-0.2,0.9-0.4,1.8-0.6,2.7c0.2,0,0.4,0.1,0.6,0.1
					c0-1.1,0.1-2.1,0.4-3.1c-0.2-0.1-0.4-0.1-0.6-0.2c-0.3,1.2-0.6,2.5-0.9,3.7c0.2,0,0.4,0.1,0.6,0.1c0.1-1.2,0.2-2.4,0.4-3.7
					c0-0.3-0.5-0.5-0.6-0.2c-0.8,1.8-1,3.5-0.7,5.5c0.1,0.4,0.7,0.3,0.7-0.1c-0.1-1.6,0-3.2,0.3-4.9c-0.2,0-0.4-0.1-0.6-0.1
					c-0.1,1.6-0.2,3.2-0.1,4.8c0,0.3,0.5,0.4,0.6,0.1c0.2-0.8,0.6-1.5,1-2.2c-0.2-0.1-0.4-0.2-0.6-0.2c-0.1,0.9-0.4,1.6-0.8,2.4
					c-0.2,0.4,0.3,0.6,0.5,0.3c0.4-0.6,0.8-1.1,1.2-1.7c-0.2-0.1-0.4-0.2-0.6-0.2c-0.3,0.8-0.6,1.5-1.1,2.2c0.2,0.1,0.3,0.2,0.5,0.3
					c0.4-0.7,0.8-1.3,1.1-2c-0.2-0.1-0.3-0.1-0.5-0.2c-0.2,0.8-0.5,1.2-1,1.8c0.1,0.1,0.3,0.1,0.4,0.2c0.1-0.5,0.1-0.9,0.2-1.4
					c0-0.3-0.4-0.4-0.4-0.1c-0.1,0.8-0.3,1.6-0.4,2.4c0.1,0,0.3,0,0.4,0c-0.1-0.4-0.2-0.9-0.3-1.3c-0.1-0.3-0.5-0.2-0.5,0.1
					c0.1,0.5,0.2,1.1,0.3,1.6c0.1,0,0.3-0.1,0.4-0.1c-0.1-0.2-0.2-0.5-0.2-0.7c-0.1-0.2-0.5-0.2-0.4,0.1c0,0.3,0.1,0.7,0.1,1
					c0.1,0,0.3,0,0.4-0.1c-0.8-2.5-0.6-5,0.4-7.3c0.1-0.3-0.3-0.6-0.5-0.3c-0.6,1.1-0.8,2.1-0.8,3.3c0,0.4,0.5,0.4,0.6,0
					c0.1-0.5,0-1.1,0.2-1.5c0-0.2,0-0.3,0.1-0.5c1.1-0.4,1.5-0.2,1.2,0.5c0.2,0,0.4,0,0.6-0.1c-0.2-0.6-0.5-1.3-0.7-1.9
					c-0.1-0.3-0.6-0.2-0.5,0.1c0.2,0.6,0.4,1.1,0.6,1.7c0.1,0.3,0.6,0.2,0.5-0.1c-0.2-0.6-0.4-1.1-0.5-1.7c-0.2,0-0.3,0.1-0.5,0.1
					c0.2,0.6,0.4,1.3,0.7,1.9c0.1,0.3,0.5,0.3,0.6-0.1c0.1-0.8-0.2-2.6-1.5-2.3c-1.2,0.3-1,2.9-1.1,3.8c0.2,0,0.4,0,0.6,0
					c0-1.1,0.2-2.1,0.7-3c-0.2-0.1-0.3-0.2-0.5-0.3c-1.1,2.5-1.2,5.1-0.4,7.7c0.1,0.2,0.5,0.2,0.4-0.1c0-0.3,0-0.7-0.1-1
					c-0.1,0-0.3,0-0.4,0.1c0.1,0.2,0.2,0.5,0.2,0.7c0.1,0.3,0.5,0.2,0.4-0.1c-0.1-0.5-0.2-1.1-0.3-1.6c-0.2,0-0.3,0.1-0.5,0.1
					c0.1,0.4,0.2,0.9,0.3,1.3c0.1,0.2,0.4,0.2,0.4,0c0.1-0.8,0.3-1.6,0.4-2.4c-0.1,0-0.3-0.1-0.4-0.1c-0.1,0.5-0.1,1-0.2,1.4
					c0,0.2,0.2,0.4,0.4,0.2c0.5-0.6,0.9-1.3,1.1-2c0.1-0.3-0.3-0.5-0.5-0.2c-0.4,0.7-0.8,1.3-1.2,2c-0.2,0.3,0.3,0.5,0.5,0.3
					c0.5-0.7,0.9-1.4,1.2-2.3c0.1-0.3-0.4-0.5-0.6-0.2c-0.4,0.6-0.8,1.1-1.2,1.7c0.2,0.1,0.4,0.2,0.5,0.3c0.4-0.8,0.7-1.6,0.8-2.6
					c0.1-0.3-0.4-0.5-0.6-0.2c-0.5,0.8-0.8,1.5-1.1,2.4c0.2,0,0.4,0.1,0.6,0.1c-0.1-1.6-0.1-3.2,0.1-4.8c0-0.4-0.6-0.4-0.6-0.1
					c-0.3,1.7-0.4,3.3-0.3,5c0.2,0,0.4-0.1,0.7-0.1c-0.2-1.7,0-3.4,0.7-5c-0.2-0.1-0.4-0.1-0.6-0.2c-0.1,1.2-0.2,2.4-0.4,3.7
					c0,0.4,0.6,0.4,0.6,0.1c0.3-1.2,0.6-2.5,0.9-3.7c0.1-0.4-0.5-0.6-0.6-0.2c-0.3,1.1-0.4,2.1-0.4,3.3c0,0.3,0.5,0.4,0.6,0.1
					c0.2-0.9,0.4-1.8,0.6-2.8c0.1-0.4-0.5-0.5-0.6-0.2c-0.2,0.7-1,3.6,0.3,3.7c1.3,0.1,1.4-2.1,1.1-2.8c-0.1-0.3-0.5-0.3-0.6-0.1
					c-0.4,0.8-0.6,1.5-0.4,2.4c0,0.3,0.5,0.3,0.6,0.1c0.5-1,0.5-1.9,0.2-3c-0.1-0.3-0.5-0.3-0.6,0c-0.3,0.9-0.4,1.8-0.4,2.7
					c0,0.4,0.5,0.4,0.6,0.1c0.3-0.9,0.3-1.7,0.1-2.7c-0.1-0.4-0.7-0.2-0.6,0.2c0.2,0.9,0.1,1.7-0.1,2.5c-0.1,0.4,0.4,0.5,0.6,0.2
					c0.5-1.4,0.4-2.7-0.4-4.1C34.3,41.7,34,41.9,34.1,42.1L34.1,42.1z"/>
			</g>
			<g>
				<path fill="#362C25" d="M47.9,31.9c-0.8-1.3-2.2-2.9-3.7-3.3c-0.2-0.1-0.3,0.3-0.2,0.4c0.7,0.5,1.4,0.8,2.1,1.4
					c0.6,0.5,1.1,1.1,1.6,1.7C47.8,32.1,48,32,47.9,31.9L47.9,31.9z"/>
			</g>
			<g>
				<path fill="#362C25" d="M44,28.8c-0.1,1.6,1.7,3.7,3.4,3.2c0.2-0.1,0.2-0.4,0-0.4c-0.8-0.2-1.4-0.2-2.1-0.7
					c-0.7-0.5-1-1.2-1.2-2.1C44.2,28.7,44,28.7,44,28.8L44,28.8z"/>
			</g>
			<g>
				<path fill="#362C25" d="M47.2,31.4c-0.9-0.5-1.7-1.1-2.2-2c-0.1,0.1-0.3,0.3-0.4,0.4c0.6,0.4,1.2,0.9,1.7,1.5
					c0.1-0.2,0.1-0.3,0.2-0.5c-0.5,0-1-0.3-1.2-0.8c-0.1,0.2-0.2,0.3-0.3,0.5c0.6,0.1,1,0.4,1.2,0.9c0.1-0.2,0.2-0.3,0.3-0.5
					c-0.5-0.1-0.9-0.3-1.1-0.7c-0.1,0.1-0.2,0.3-0.2,0.4c0.5,0,0.9,0.4,1,0.9c0.1-0.1,0.2-0.2,0.3-0.3c-0.4-0.1-0.8-0.3-1.1-0.6
					c-0.2-0.1-0.5,0-0.3,0.3c0.3,0.5,0.8,0.7,1.3,0.9c0.2,0.1,0.4-0.1,0.3-0.3c-0.1-0.8-0.7-1.3-1.5-1.3c-0.2,0-0.4,0.2-0.2,0.4
					c0.4,0.6,0.9,0.9,1.6,1c0.2,0,0.3-0.3,0.3-0.5c-0.3-0.7-1-1.1-1.7-1.2c-0.3,0-0.3,0.3-0.3,0.5c0.3,0.7,0.9,1.1,1.7,1.1
					c0.3,0,0.4-0.3,0.2-0.5c-0.5-0.6-1.2-1.1-1.9-1.5c-0.2-0.1-0.5,0.1-0.4,0.4c0.6,0.9,1.5,1.6,2.5,2
					C47.3,31.8,47.4,31.5,47.2,31.4L47.2,31.4z"/>
			</g>
			<g>
				<path fill="#362C25" d="M47,31.3c-0.7-0.6-1.4-1.1-2.1-1.6c-0.2-0.1-0.3,0.1-0.2,0.3c0.7,0.6,1.4,1.2,2.1,1.6
					C47,31.7,47.2,31.4,47,31.3L47,31.3z"/>
			</g>
			<g>
				<path fill="#362C25" d="M45.7,31.1c-0.4-0.6-0.8-1.2-1.2-1.8c-0.1,0.1-0.3,0.2-0.4,0.2c0.3,0.5,0.6,1,0.8,1.5
					c0.1-0.1,0.2-0.1,0.4-0.2c-0.3-0.3-0.4-0.6-0.5-1c-0.1,0-0.2,0.1-0.4,0.1c0.7,0.6,1.4,1.2,2.2,1.7c0.1,0.1,0.2,0.1,0.2,0
					c0.3-0.2,0.4-0.5,0.2-0.8c-0.1-0.1-0.3,0-0.3,0.1c0,0.1,0,0.2-0.1,0.3c0.1,0,0.2,0,0.2,0c-0.7-0.6-1.4-1.2-2.2-1.7
					c-0.1-0.1-0.4,0-0.4,0.1c0,0.5,0.2,0.9,0.6,1.3c0.1,0.2,0.4,0,0.4-0.2c-0.2-0.6-0.4-1.1-0.8-1.6c-0.2-0.2-0.6,0-0.4,0.2
					c0.4,0.6,0.9,1.2,1.3,1.8C45.5,31.4,45.8,31.3,45.7,31.1L45.7,31.1z"/>
			</g>
		</g>
	</g>
	<g>
		<g>
			<g>
				<path fill="#362C25" d="M202.3,39.3c-0.3-2.9,0-5.9,1.4-8.5c1.3-2.4,3.1-3.9,5.1-5.6c1.2-1.1,2.4-3,1.4-4.6
					c-0.8-1.3-2.4-1.7-3.8-1.4c-1.5,0.3-2.9,1.3-3.2,2.8c-0.3,1.4,0.4,2.9,1.9,3.2c3.4,0.5,2.7-4.5,0.1-3.5
					c-0.2,0.1-0.2,0.5,0.1,0.5c0.6-0.1,1,0.1,1.4,0.6c-0.1,1.7-0.7,2.2-1.8,1.3c-1.1-0.2-1.5-0.8-1.1-2c0.1-0.6,0.4-1.1,0.9-1.4
					c1.2-1.1,3.8-1.4,4.8,0.2c1.6,2.6-3.3,5.3-4.6,7c-2.6,3.2-3.7,7.5-2.9,11.5C202,39.5,202.3,39.5,202.3,39.3L202.3,39.3z"/>
			</g>
			<g>
				<path fill="#362C25" d="M202.6,38.9c-0.9-4.6,1.4-8.8,5-11.6c1.6-1.3,3.4-2.3,5.2-3.2c1.3-0.7,2.8-1.4,3.5-2.8
					c0.7-1.5-0.1-4-2.1-3.6c-1.5,0.3-1.8,2.8-0.2,3c0.3,0,0.5-0.3,0.2-0.5c1.5-1.2,2-1.2,1.6,0.1c0,0.6-0.2,1.2-0.7,1.6
					c-0.5,0.6-1.3,0.9-2,1.3c-0.9,0.5-1.8,0.9-2.7,1.5c-1.9,1.1-3.7,2.4-5.1,4.1c-2.5,2.8-3.8,6.6-2.8,10.2
					C202.4,39.1,202.7,39,202.6,38.9L202.6,38.9z"/>
			</g>
			<g>
				<path fill="#362C25" d="M249,39.9c1.5,0.3,2.1-0.9,2.1,0.9c0,0.8-0.5,1.6-1.1,2.1c-1.1,0.8-2.9,0.4-3.8-0.5c-1.9-2-1-5,0.9-6.6
					c1.5-1.2,3.6-1.8,5.4-1c2.2,0.9,3,3.3,2.9,5.5c-0.2,3.9-3.1,7.1-6.9,7.8c-4.2,0.8-7.8-1.8-10.1-5.1c-3.8-5.4-5.4-12-10.7-16.3
					c-4.4-3.5-10.6-4.4-15.8-2.2c-5.8,2.4-9.5,8.3-9.5,14.5c0,0.4,0.5,0.4,0.5,0c0.1-11.2,12.2-18.8,22.3-13.4
					c4.8,2.6,7.5,7.4,9.8,12.1c2,4,4.2,8.4,8.5,10.3c3.5,1.5,7.8,0.6,10.3-2.2c2.3-2.6,3.4-7,1.2-10c-1.9-2.7-5.8-2.6-8.2-0.5
					c-2.4,2-3.2,6.4-0.1,8.1c2.8,1.6,6.7-1.5,4.4-4.4c-0.6-0.8-2.2-1.5-2.9-0.5c-0.6,0.8-0.1,1.7,0.8,1.8
					C249.2,40.3,249.2,40,249,39.9L249,39.9z"/>
			</g>
			<g>
				<path fill="#362C25" d="M218,23.6c6.1-1.6,10.8,2.5,14.7,6.7c1.9,2,5.8,5.8,8.4,2.6c1.5-1.7-0.3-5.1-2.5-3.7
					c-2.1,1.3,0.4,4.1,1.7,2.4c0.2-0.2-0.1-0.4-0.3-0.3c1-1.3,1.2-1.2,0.7,0.3c0.1,0.8-0.2,1.4-0.9,1.7c-1.1,0.5-2.4,0.3-3.4-0.2
					c-1.1-0.6-1.9-1.5-2.7-2.3c-1.6-1.7-3.1-3.3-4.9-4.7c-3.1-2.4-7.2-4-10.9-2.4C217.9,23.4,218,23.6,218,23.6L218,23.6z"/>
			</g>
			<g>
				<path fill="#362C25" d="M252.9,46.6c2.8-3.3,6.4-7,11.3-5.8c3,0.7,5.1,4.1,2.5,6.6c-1.2,1.2-3.4,1.4-4.6,0
					c-0.4-0.5-0.7-1.3-0.7-1.9c0-0.8,0.3-1.3,0.9-1.7c0.9-1.1,1.6-0.5,1.9,1.8c-0.2,0.2,0.1,0.5,0.3,0.4c1.1-0.5,1.3-2,0.4-2.9
					c-1-1-2.8-0.5-3.5,0.5c-2.6,3.3,2.1,6.8,5.1,4.8c1.5-1,2.3-2.8,2-4.6c-0.4-2.1-2.2-3.4-4.1-3.8C259.6,39,255,42.5,252.9,46.6
					C252.8,46.6,252.9,46.7,252.9,46.6L252.9,46.6z"/>
			</g>
			<g>
				<path fill="#362C25" d="M253.1,46c1.1-0.6,2.3-1.4,3.7-1.1c0.9,0.2,1.8,0.7,1.8,1.8c0.1,0.3,0,0.6-0.3,0.8
					c-0.2,0.5-0.5,0.6-1,0.4c-0.7,0-0.9-0.1-1.3-0.6c-0.2-0.2-0.5,0.1-0.4,0.3c1,2.2,4.4,0.6,3.5-1.6c-1.1-2.8-4.5-1.4-6.1-0.1
					C252.8,45.9,253,46.1,253.1,46L253.1,46z"/>
			</g>
			<g>
				<path fill="#362C25" d="M232.8,33.8c0.9,4.4-0.3,9-3.8,11.9c-3.9,3.4-10.3,3.4-13.7-0.7c-3.3-4-1.6-11.9,4.5-11.9
					c3.2,0,5.4,3.6,4.1,6.5c-0.7,1.5-2.3,2.5-3.9,1.9c-1.1-0.4-1.8-1.5-1.6-2.7c0.1-0.2,0.2-0.5,0.3-0.7c0.8-1.5,1.7-1,2.5,1.2
					c-0.3,0.2,0,0.8,0.3,0.6c1.7-1,0.9-3.4-1-3.5c-2.1-0.2-3.3,2.3-2.6,4.1c0.8,1.9,3.5,2.3,5.1,1.2c2.1-1.3,2.5-4.2,1.5-6.3
					c-1.3-2.7-4.3-3.7-7-2.5c-2.4,1-4,3.4-4.4,5.9c-1,6.2,5.2,10.7,11,9.8c6.8-1.1,11.2-8.4,9.2-14.9
					C233,33.6,232.8,33.6,232.8,33.8L232.8,33.8z"/>
			</g>
			<g>
				<path fill="#362C25" d="M217.4,33.3c1.8-0.5,3.2-2,3.1-3.9c-0.1-1.8-1.6-3.4-3.5-3.2c-1.5,0.2-2.9,1.8-1.9,3.2
					c0.8,1.1,2.6,0.8,2.6-0.6c0-0.3-0.4-0.3-0.5-0.1c-1.4,0.6-2,0.4-1.7-0.5c0-0.5,0.2-0.9,0.7-1.1c0.3-0.2,0.8-0.3,1.2-0.3
					c1.3,0,2.3,1,2.5,2.2c0.3,1.9-1,3.3-2.6,4.1C217.2,33.2,217.3,33.4,217.4,33.3L217.4,33.3z"/>
			</g>
			<g>
				<path fill="#362C25" d="M202.9,37c-0.2-3.2,1.4-6.2,4.6-7.2c2.1-0.6,5.1,0.7,3.5,3.2c-0.3,0.7-0.9,1.1-1.8,1.2
					c-1,0.1-1.4-0.4-1.4-1.4c-0.6-0.9-0.4-1.5,0.7-1.7c0.4,0,0.7,0.2,0.9,0.5c0.2,0.2,0.5,0,0.4-0.3c-0.5-2.3-3.6-0.4-3.3,1.5
					c0.4,2.9,4.3,2.3,5.3,0.2c0.5-1.1,0.5-2.6-0.4-3.6c-1.1-1.2-3-0.9-4.4-0.5c-3.3,1.2-5.1,4.5-4.4,7.9
					C202.7,37.1,202.9,37.1,202.9,37L202.9,37z"/>
			</g>
			<g>
				<path fill="#362C25" d="M215.8,45.8c-1.4-3-5.3-6.7-9-6c-3,0.6-4,4.7-1.2,6.2c2.3,1.3,6.2-1.4,4-3.8c-1.7-1.8-4.5,0.9-2.3,2.3
					c0.2,0.1,0.4-0.2,0.2-0.3c2.2-2,2.5-1.6,0.9,1.4c-0.4,0.1-0.9,0.2-1.3,0.3c-1.2,0-2.3-0.9-2.6-2c-0.7-2.7,2.3-3.8,4.5-3.2
					c2.8,0.8,4.9,3.1,6.6,5.3C215.7,45.9,215.8,45.9,215.8,45.8L215.8,45.8z"/>
			</g>
			<g>
				<path fill="#362C25" d="M216.2,46.3c-0.8-0.4-1.9-0.5-2.7-0.1c-0.6,0.3-1.1,1-1,1.7c0.2,1.6,2.5,1.8,2.9,0.2
					c0.1-0.3-0.3-0.4-0.4-0.2c-0.3,0.5-0.8,0.9-1.4,0.6c-0.5-0.3-0.6-1-0.3-1.4c0.6-0.9,1.8-0.7,2.8-0.6
					C216.2,46.5,216.3,46.3,216.2,46.3L216.2,46.3z"/>
			</g>
			<g>
				<path fill="#362C25" d="M234.3,41.2c-1.1,0.8-1.8,2.2-1.7,3.6c0.2,2.5,3.1,4.2,1.5,6.9c-0.1,0.2,0.2,0.4,0.4,0.3
					c1.1-0.9,0.9-2.4,0.4-3.6c-0.3-0.8-0.9-1.4-1.2-2.2c-0.8-1.7-0.5-3.4,0.8-4.8C234.6,41.3,234.4,41.1,234.3,41.2L234.3,41.2z"/>
			</g>
			<g>
				<path fill="#362C25" d="M234.6,51.8c1.5-2,2.1-4.5,1.9-6.9c-0.1-1.5-0.5-3.6-2.1-4c-0.3-0.1-0.4,0.3-0.2,0.4
					C237.6,43.1,235.8,49.2,234.6,51.8C234.5,51.8,234.6,51.9,234.6,51.8L234.6,51.8z"/>
			</g>
			<g>
				<path fill="#362C25" d="M257.8,40.4c-0.6-3.4,4.3-5.9,2.5-9.2c-0.1-0.2-0.4-0.1-0.4,0.2c1.1,3.5-3.7,5.7-2.3,9.1
					C257.6,40.6,257.8,40.5,257.8,40.4L257.8,40.4z"/>
			</g>
			<g>
				<path fill="#362C25" d="M260.3,31.3c-0.5,1.3,0.1,2.2,0.5,3.5c0.8,2.8-1.5,3.9-3.4,5.2c-0.2,0.1-0.1,0.4,0.1,0.3
					c1.4-0.5,3-1.5,3.7-2.9c1-2.2-1-3.9-0.7-6.1C260.6,31.2,260.4,31.1,260.3,31.3L260.3,31.3z"/>
			</g>
			<g>
				<path fill="#362C25" d="M257.8,39.6c0.7-0.7,1.2-1.6,1.7-2.4c0.5-0.8,1.1-1.7,1.4-2.7c0.1-0.3-0.3-0.5-0.5-0.2
					c-0.6,0.8-0.9,1.7-1.4,2.6c-0.5,0.9-1,1.7-1.5,2.5C257.4,39.6,257.6,39.8,257.8,39.6L257.8,39.6z"/>
			</g>
			<g>
				<path fill="#362C25" d="M260.3,34.2c0.7,2-0.2,3.9-2.2,4.7c0.1,0.2,0.2,0.3,0.4,0.5c0.6-1,1.2-1.9,1.9-2.9
					c-0.2-0.1-0.3-0.2-0.5-0.3c-0.4,0.8-0.9,1.5-1.3,2.3c-0.2,0.3,0.2,0.6,0.5,0.4c0.8-0.7,1.3-1.6,1.5-2.7c0.1-0.3-0.4-0.6-0.6-0.2
					c-0.5,1-1.1,1.9-2,2.7c0.2,0.1,0.3,0.1,0.5,0.2c0.1-1.1,0.5-1.9,1.2-2.6c-0.1-0.1-0.3-0.3-0.4-0.4c-0.8,0.9-1.3,1.9-1.5,3
					c-0.1,0.3,0.4,0.5,0.6,0.2c0.6-1.2,1.2-2.3,1.8-3.5c-0.2-0.1-0.3-0.2-0.5-0.3c-0.6,1.4-1.2,2.7-1.8,4.1
					c-0.1,0.2,0.1,0.4,0.3,0.4c2.2-0.6,2.4-3,2.3-4.9c-0.2,0-0.4,0-0.5,0c0.1,0.8,0.1,1.5-0.1,2.2c-0.1,0.3,0.3,0.4,0.4,0.2
					c0.4-0.5,0.4-0.9,0.3-1.5c0-0.2-0.3-0.2-0.4-0.1c-0.3,0.4-0.6,0.8-0.9,1.2c-0.1,0.1,0.1,0.3,0.3,0.2c0.3-0.4,0.7-0.8,1-1.2
					c-0.1,0-0.3-0.1-0.4-0.1c-0.1,0.4-0.2,0.7-0.3,1.1c0.1,0.1,0.3,0.2,0.4,0.2c0.2-0.8,0.2-1.5,0.2-2.3c0-0.3-0.5-0.4-0.5,0
					c0,1.6,0.1,3.9-1.9,4.4c0.1,0.1,0.2,0.3,0.3,0.4c0.6-1.3,1.3-2.7,1.9-4c0.2-0.3-0.3-0.7-0.5-0.3c-0.6,1.2-1.2,2.3-1.8,3.5
					c0.2,0.1,0.4,0.2,0.6,0.2c0.3-1,0.7-1.9,1.4-2.8c0.2-0.3-0.1-0.7-0.4-0.4c-0.9,0.8-1.3,1.9-1.4,3.1c0,0.3,0.3,0.4,0.5,0.2
					c0.9-0.8,1.6-1.7,2.1-2.8c-0.2-0.1-0.4-0.2-0.6-0.2c-0.2,1-0.6,1.8-1.4,2.4c0.2,0.1,0.3,0.2,0.5,0.4c0.4-0.8,0.9-1.5,1.3-2.3
					c0.2-0.3-0.3-0.6-0.5-0.3c-0.6,1-1.2,1.9-1.9,2.9c-0.2,0.2,0.1,0.5,0.4,0.5c2.3-0.7,3.4-3.2,2.4-5.4
					C260.6,33.8,260.3,34,260.3,34.2L260.3,34.2z"/>
			</g>
			<g>
				<path fill="#362C25" d="M234.2,41.9c-0.7,1.3-0.8,2.6-0.4,4c0.1,0.4,0.7,0.2,0.6-0.1c-0.3-0.9-0.3-1.6-0.1-2.5
					c0.1-0.4-0.5-0.6-0.6-0.2c-0.2,0.9-0.2,1.7,0.1,2.7c0.1,0.3,0.6,0.3,0.6-0.1c0-0.9-0.1-1.8-0.4-2.7c-0.1-0.3-0.5-0.3-0.6,0
					c-0.3,1.1-0.3,2,0.2,3c0.2,0.3,0.6,0.1,0.6-0.2c0.1-0.9,0-1.5-0.4-2.3c-0.1-0.2-0.5-0.2-0.6,0.1c-0.2,0.7-0.1,2.9,1.1,2.8
					c1.3-0.1,0.4-3.1,0.3-3.7c-0.1-0.4-0.7-0.2-0.6,0.2c0.2,0.9,0.4,1.8,0.6,2.8c0.1,0.3,0.6,0.3,0.6-0.1c0-1.1-0.1-2.2-0.4-3.3
					c-0.1-0.4-0.7-0.2-0.6,0.2c0.3,1.2,0.6,2.5,0.9,3.7c0.1,0.3,0.7,0.3,0.6-0.1c-0.1-1.2-0.2-2.4-0.4-3.7c-0.2,0.1-0.4,0.1-0.6,0.2
					c0.7,1.6,0.9,3.2,0.7,5c0.2,0,0.4,0.1,0.7,0.1c0.1-1.7,0-3.4-0.3-5c-0.1-0.4-0.7-0.3-0.6,0.1c0.1,1.6,0.2,3.2,0.1,4.8
					c0.2,0,0.4-0.1,0.6-0.1c-0.3-0.9-0.6-1.6-1.1-2.4c-0.2-0.3-0.6-0.1-0.6,0.2c0.1,0.9,0.4,1.7,0.8,2.6c0.2-0.1,0.4-0.2,0.5-0.3
					c-0.4-0.6-0.8-1.1-1.2-1.7c-0.2-0.3-0.7-0.1-0.6,0.2c0.3,0.8,0.7,1.6,1.2,2.3c0.2,0.3,0.7,0,0.5-0.3c-0.4-0.7-0.8-1.3-1.2-2
					c-0.1-0.2-0.6-0.1-0.5,0.2c0.3,0.8,0.6,1.4,1.1,2.1c0.2,0.2,0.4,0,0.4-0.2c-0.1-0.5-0.1-1-0.2-1.4c-0.1,0-0.3,0.1-0.4,0.1
					c0.1,0.8,0.3,1.6,0.4,2.4c0,0.2,0.4,0.2,0.4,0c0.1-0.4,0.2-0.9,0.3-1.3c-0.2,0-0.3-0.1-0.5-0.1c-0.1,0.5-0.2,1.1-0.3,1.6
					c0,0.3,0.4,0.4,0.4,0.1c0.1-0.2,0.2-0.5,0.2-0.7c-0.1,0-0.3,0-0.4-0.1c0,0.3,0,0.7-0.1,1c0,0.3,0.4,0.3,0.4,0.1
					c0.9-2.6,0.7-5.2-0.4-7.7c-0.2,0.1-0.3,0.2-0.5,0.3c0.5,1,0.8,1.9,0.7,3c0.2,0,0.4,0,0.6,0c-0.1-0.9,0.1-3.5-1.1-3.8
					c-1.4-0.3-1.6,1.4-1.5,2.3c0,0.3,0.4,0.4,0.6,0.1c0.2-0.6,0.4-1.3,0.7-1.9c-0.2,0-0.3-0.1-0.5-0.1c-0.2,0.6-0.4,1.1-0.5,1.7
					c-0.1,0.3,0.4,0.5,0.5,0.1c0.2-0.6,0.4-1.1,0.6-1.7c0.1-0.3-0.4-0.5-0.5-0.1c-0.2,0.6-0.5,1.3-0.7,1.9c0.2,0,0.4,0.1,0.6,0.1
					c-0.2-0.6,0-0.7,0.6-0.5c0.6-0.2,0.8,0,0.7,0.5c0.2,0.4,0.1,1.1,0.2,1.5c0,0.4,0.6,0.4,0.6,0c0-1.2-0.3-2.3-0.8-3.3
					c-0.2-0.3-0.6,0-0.5,0.3c1,2.3,1.2,4.9,0.4,7.3c0.1,0,0.3,0,0.4,0.1c0-0.3,0-0.7,0.1-1c0-0.3-0.4-0.3-0.4-0.1
					c-0.1,0.2-0.2,0.5-0.2,0.7c0.1,0,0.3,0.1,0.4,0.1c0.1-0.5,0.2-1.1,0.3-1.6c0-0.3-0.4-0.4-0.5-0.1c-0.1,0.4-0.2,0.9-0.3,1.3
					c0.1,0,0.3,0,0.4,0c-0.1-0.8-0.3-1.6-0.4-2.4c0-0.3-0.5-0.2-0.4,0.1c0.1,0.5,0.1,1,0.2,1.4c0.1-0.1,0.3-0.2,0.4-0.2
					c-0.5-0.6-0.7-1.1-1-1.8c-0.2,0.1-0.3,0.1-0.5,0.2c0.4,0.7,0.8,1.4,1.1,2c0.2-0.1,0.3-0.2,0.5-0.3c-0.5-0.7-0.8-1.4-1.1-2.1
					c-0.2,0.1-0.4,0.2-0.6,0.2c0.4,0.6,0.8,1.1,1.2,1.7c0.2,0.3,0.7,0,0.5-0.3c-0.4-0.8-0.6-1.5-0.8-2.4c-0.2,0.1-0.4,0.2-0.6,0.2
					c0.5,0.7,0.8,1.4,1,2.2c0.1,0.3,0.6,0.3,0.6-0.1c0.1-1.6,0.1-3.2-0.1-4.8c-0.2,0-0.4,0.1-0.6,0.1c0.3,1.6,0.4,3.2,0.3,4.9
					c0,0.4,0.6,0.5,0.7,0.1c0.3-1.9,0-3.7-0.7-5.5c-0.1-0.3-0.6-0.1-0.6,0.2c0.1,1.2,0.2,2.4,0.4,3.7c0.2,0,0.4-0.1,0.6-0.1
					c-0.3-1.2-0.6-2.5-0.9-3.7c-0.2,0.1-0.4,0.1-0.6,0.2c0.3,1,0.4,2,0.4,3.1c0.2,0,0.4-0.1,0.6-0.1c-0.2-0.9-0.4-1.8-0.6-2.7
					c-0.2,0.1-0.4,0.1-0.6,0.2c0.1,0.5,0.5,1.4,0.3,1.8c0.1,0.4,0,0.4-0.3,0c-0.5-0.2-0.5-0.5-0.2-0.9c-0.2,0-0.4,0.1-0.6,0.1
					c0.4,0.7,0.4,1.2,0.4,1.9c0.2-0.1,0.4-0.1,0.6-0.2c-0.4-0.8-0.4-1.7-0.1-2.5c-0.2,0-0.4,0-0.6,0c0.3,0.8,0.4,1.7,0.4,2.5
					c0.2,0,0.4-0.1,0.6-0.1c-0.2-0.8-0.3-1.5-0.1-2.3c-0.2-0.1-0.4-0.1-0.6-0.2c-0.2,1-0.2,1.8,0.2,2.8c0.2,0,0.4-0.1,0.6-0.1
					c-0.5-1.3-0.4-2.5,0.2-3.7C234.6,41.9,234.3,41.7,234.2,41.9L234.2,41.9z"/>
			</g>
			<g>
				<path fill="#362C25" d="M220.9,32c0.5-0.6,1-1.2,1.6-1.7c0.7-0.5,1.4-0.9,2.1-1.4c0.2-0.1,0.1-0.5-0.2-0.4
					c-1.6,0.4-2.9,2-3.7,3.3C220.6,32,220.8,32.1,220.9,32L220.9,32z"/>
			</g>
			<g>
				<path fill="#362C25" d="M224.4,28.8c-0.1,0.8-0.5,1.5-1.2,2.1c-0.6,0.5-1.3,0.6-2.1,0.7c-0.2,0.1-0.2,0.4,0,0.4
					c1.7,0.5,3.5-1.6,3.4-3.2C224.6,28.7,224.4,28.7,224.4,28.8L224.4,28.8z"/>
			</g>
			<g>
				<path fill="#362C25" d="M221.5,31.7c1.1-0.3,1.9-1.1,2.5-2c0.2-0.2-0.2-0.5-0.4-0.4c-0.7,0.4-1.3,0.9-1.9,1.5
					c-0.2,0.2-0.1,0.5,0.2,0.5c0.7,0,1.4-0.5,1.7-1.1c0.1-0.2,0-0.5-0.3-0.5c-0.8,0.1-1.4,0.5-1.8,1.2c-0.1,0.3,0.1,0.5,0.3,0.4
					c0.7-0.1,1.2-0.5,1.5-1c0.1-0.2,0-0.4-0.2-0.4c-0.8,0-1.4,0.6-1.5,1.4c0,0.2,0.2,0.3,0.3,0.3c0.5-0.2,1-0.4,1.3-0.9
					c0.1-0.2-0.2-0.4-0.3-0.3c-0.3,0.3-0.7,0.5-1.1,0.6c0.1,0.1,0.2,0.2,0.3,0.3c0.1-0.5,0.4-0.9,1-0.9c-0.1-0.1-0.2-0.3-0.2-0.4
					c-0.3,0.4-0.7,0.6-1.1,0.7c0.1,0.1,0.2,0.3,0.3,0.4c0.2-0.5,0.7-0.8,1.2-0.9c-0.1-0.2-0.2-0.3-0.3-0.5c-0.2,0.5-0.6,0.8-1.2,0.8
					c0.1,0.2,0.1,0.3,0.2,0.5c0.5-0.6,1.1-1,1.7-1.5c-0.1-0.1-0.3-0.3-0.4-0.4c-0.5,0.9-1.3,1.5-2.2,2
					C221.2,31.5,221.3,31.8,221.5,31.7L221.5,31.7z"/>
			</g>
			<g>
				<path fill="#362C25" d="M221.8,31.6c0.8-0.5,1.4-1.1,2.1-1.6c0.1-0.1,0-0.4-0.2-0.3c-0.7,0.5-1.5,1-2.1,1.6
					C221.4,31.4,221.6,31.7,221.8,31.6L221.8,31.6z"/>
			</g>
			<g>
				<path fill="#362C25" d="M223.2,31.2c0.4-0.6,0.9-1.2,1.3-1.8c0.1-0.2-0.2-0.5-0.4-0.3c-0.4,0.5-0.7,1-0.8,1.7
					c-0.1,0.2,0.2,0.4,0.4,0.2c0.3-0.4,0.5-0.8,0.6-1.3c0-0.2-0.2-0.3-0.4-0.1c-0.7,0.6-1.4,1.2-2.2,1.7c0.1,0,0.2,0,0.2,0
					c-0.1-0.1-0.1-0.2-0.1-0.3c0-0.1-0.2-0.2-0.3-0.1c-0.2,0.3-0.1,0.6,0.2,0.8c0.1,0.1,0.2,0,0.2,0c0.7-0.6,1.4-1.2,2.2-1.7
					c-0.1,0-0.2-0.1-0.4-0.1c0,0.4-0.2,0.7-0.5,1c0.1,0.1,0.2,0.1,0.4,0.2c0.2-0.5,0.5-1,0.8-1.5c-0.1-0.1-0.3-0.2-0.4-0.2
					c-0.4,0.6-0.8,1.2-1.2,1.8C222.8,31.3,223.1,31.4,223.2,31.2L223.2,31.2z"/>
			</g>
		</g>
		<g>
			<g>
				<path fill="#362C25" d="M202,58.3c-0.8,3.9,0.3,8.1,2.7,11.3c1.3,1.8,4.5,3.3,5,5.5c0.6,2.7-2.5,3.4-4.3,2.5
					c-1.2-0.6-1.7-1.4-1.6-2.7c-0.1-1.1,0.6-1.6,2-1.6c1.4,1.4,1.2,2.2-0.6,2.4c-0.3,0-0.3,0.4-0.1,0.5c2.5,1,3.2-4-0.1-3.5
					c-1.3,0.2-2.1,1.5-2,2.8c0.1,1.7,1.6,2.9,3.2,3.2c1.4,0.3,3.1-0.1,3.8-1.4c0.9-1.5,0-3.3-1.2-4.4c-2-1.9-4-3.3-5.3-5.8
					c-1.4-2.7-1.7-5.6-1.4-8.5C202.3,58.2,202,58.1,202,58.3L202,58.3z"/>
			</g>
			<g>
				<path fill="#362C25" d="M202.3,58.7c-1,3.7,0.4,7.5,2.8,10.2c1.4,1.6,3.1,2.8,4.9,3.9c1,0.6,2,1.1,3,1.6c0.7,0.4,1.4,0.7,2,1.3
					c0.2,0.2,0.4,0.5,0.6,0.7c0.8,1.5,0.3,1.8-1.4,0.9c0.3-0.2,0.1-0.5-0.2-0.5c-1.5,0.2-1.4,2.5,0,3c2.1,0.7,3.1-2,2.3-3.6
					c-0.6-1.3-1.9-2-3.2-2.7c-1.9-1-3.8-2-5.5-3.3c-3.5-2.8-5.9-7-5-11.6C202.6,58.6,202.4,58.5,202.3,58.7L202.3,58.7z"/>
			</g>
			<g>
				<path fill="#362C25" d="M249,57.4c-2.1,0.2-0.4,3.5,1.7,1.7c2.3-1.9,0.4-5.2-2.2-5.3c-3.5,0-4.7,4.1-3.2,6.8
					c1.6,2.8,5.6,4.4,8.4,2.5c3-2,2.8-6.5,1.3-9.4c-1.8-3.4-5.6-5.3-9.3-4.7c-4.3,0.6-7.3,4.4-9.3,8c-2.5,4.5-4.3,9.4-8.2,12.9
					c-4.6,4.2-11.5,5.2-17.1,2.4c-5-2.6-8.1-8-8.2-13.6c0-0.4-0.6-0.4-0.5,0c0,5.4,2.8,10.6,7.5,13.5c4.8,3,11.3,2.9,16.1,0
					c5.7-3.4,7.9-9.5,10.9-15c1.8-3.3,4.3-6.5,8.1-7.5c4.1-1,8.4,1.2,9.9,5.2c0.7,1.9,0.8,4.3-0.2,6.2c-1.3,2.2-4.1,2.7-6.3,1.7
					c-2.2-1.1-4-3.8-2.9-6.3c0.6-1.4,2.1-2.4,3.7-2c0.8,0.2,1.6,0.8,1.9,1.6c0,0.3,0.1,0.5,0.1,0.8c0.1,1.4-0.6,1.7-2.1,0.9
					C249.2,57.7,249.2,57.3,249,57.4L249,57.4z"/>
			</g>
			<g>
				<path fill="#362C25" d="M218,74.3c3.8,1.6,7.9,0,11-2.4c1.7-1.3,3.2-2.9,4.7-4.5c0.9-0.9,1.8-1.9,2.9-2.5c1-0.5,2.3-0.8,3.4-0.2
					c0.2,0.2,0.5,0.4,0.7,0.5c0.9,2.5,0.7,2.9-0.6,1.4c0.2,0.1,0.5-0.1,0.3-0.3c-1.3-1.7-3.8,1-1.7,2.4c2.2,1.5,4-2,2.5-3.7
					c-2.7-3.2-6.6,0.5-8.4,2.6c-3.9,4.2-8.6,8.3-14.7,6.7C218,74.1,217.9,74.2,218,74.3L218,74.3z"/>
			</g>
			<g>
				<path fill="#362C25" d="M252.8,51.1c2.1,4,6.5,7.4,11.2,6.5c2-0.4,3.9-1.5,4.4-3.6c0.4-1.8-0.4-3.8-2-4.8
					c-3-1.9-7.5,1.2-5.3,4.6c0.7,1.1,2.5,1.8,3.6,0.8c0.9-0.8,0.8-2.4-0.3-2.9c-0.2-0.1-0.5,0.2-0.3,0.4c-0.3,2.3-1,2.9-1.9,1.8
					c-0.5-0.2-0.8-0.6-0.8-1.1c-0.3-0.8-0.1-1.8,0.5-2.5c1.2-1.3,3.4-1.1,4.6,0c2.6,2.5,0.5,6-2.5,6.6
					C259.3,57.9,255.8,54.5,252.8,51.1C252.9,51,252.8,51.1,252.8,51.1L252.8,51.1z"/>
			</g>
			<g>
				<path fill="#362C25" d="M252.9,51.8c1.6,1.3,5,2.6,6.1-0.1c0.9-2.2-2.5-3.9-3.5-1.6c-0.1,0.2,0.2,0.5,0.4,0.3
					c0.2-0.2,0.4-0.5,0.7-0.6c0.8-0.3,1.7,0.1,2,0.9c0.4,1.1-0.9,2-1.8,2.2c-1.4,0.2-2.5-0.5-3.7-1.1
					C253,51.6,252.8,51.7,252.9,51.8L252.9,51.8z"/>
			</g>
			<g>
				<path fill="#362C25" d="M233.1,63.9c1.8-5.6-1.2-12-6.6-14.2c-5.5-2.3-12.8,0.5-13.6,6.9c-0.3,2.7,0.8,5.6,3,7.2
					c2.1,1.6,5.1,2,7.2,0.2c2-1.8,2.5-5,0.9-7.1c-1.2-1.6-3.8-2.1-5.4-0.7c-1.6,1.4-1.2,4.5,1,5c2.2,0.6,3.8-2.2,1.8-3.4
					c-0.4-0.2-0.7,0.3-0.3,0.6c-0.9,2-1.6,2.5-2.2,1.5c-0.3-0.3-0.4-0.6-0.5-1c-0.2-1,0.2-1.8,1.1-2.4c1.5-0.9,3.4-0.3,4.3,1.2
					c1.7,2.9-0.5,6.9-3.9,6.9c-2.8,0-5.2-2.3-6-4.8c-0.8-2.5-0.1-5.1,1.5-7.1c3.4-4.2,9.8-4,13.7-0.7c3.5,2.9,4.7,7.6,3.8,11.9
					C232.8,64,233,64.1,233.1,63.9L233.1,63.9z"/>
			</g>
			<g>
				<path fill="#362C25" d="M217.3,64.5c1.6,0.7,3,2.2,2.6,4c-0.2,1.1-1,2-2.2,2.2c-0.5,0.1-1,0-1.5-0.2c-0.2-0.2-0.4-0.4-0.6-0.6
					c-0.6-1.3,0-1.6,1.6-1c0.1,0.3,0.5,0.2,0.5-0.1c0-1.3-1.7-1.8-2.5-0.8c-1.2,1.4,0.3,3.2,1.8,3.4c1.8,0.2,3.3-1.2,3.5-3
					c0.2-2-1.2-3.6-3.1-4.1C217.3,64.3,217.2,64.5,217.3,64.5L217.3,64.5z"/>
			</g>
			<g>
				<path fill="#362C25" d="M202.7,60.7c-0.7,3.4,1.1,6.7,4.4,7.9c1.3,0.5,3.1,0.7,4.3-0.3c1-0.9,1.2-2.5,0.6-3.7
					c-1-2.2-4.9-2.7-5.3,0.2c-0.3,2,2.8,3.8,3.3,1.5c0.1-0.2-0.3-0.5-0.5-0.3c-0.5,0.5-1.4,0.6-1.9-0.1c-0.3-1.6,0.3-2.4,1.6-2.5
					c0.5,0.2,1,0.4,1.4,0.6c0.8,0.6,1.1,2.3,0.5,3.2c-0.8,1.2-2.5,1-3.6,0.7c-3.2-0.9-4.8-4-4.6-7.2
					C202.9,60.6,202.7,60.5,202.7,60.7L202.7,60.7z"/>
			</g>
			<g>
				<path fill="#362C25" d="M215.6,51.8c-1.6,2.2-3.5,4.2-6.1,5.1c-1.8,0.7-4.4,0.5-4.9-1.8c-0.3-1.2,0.3-2.4,1.3-3
					c1.2-0.6,3.6-0.7,1.6,1.4c0.2-0.2,0-0.4-0.2-0.3c-2.4,1.4,1,4.4,2.5,1.9c1.6-2.6-2.1-4.7-4.2-3.5c-2.8,1.6-1.8,5.6,1.2,6.2
					c3.7,0.7,7.6-3,9-6C215.8,51.8,215.7,51.7,215.6,51.8L215.6,51.8z"/>
			</g>
			<g>
				<path fill="#362C25" d="M216.1,51.1c-1,0.1-2.2,0.4-2.8-0.6c-0.3-0.5-0.3-1.1,0.3-1.4c0.6-0.3,1.1,0.1,1.4,0.6
					c0.1,0.2,0.5,0.1,0.4-0.2c-0.3-1.6-2.7-1.4-2.9,0.2c-0.1,0.7,0.4,1.4,1,1.7c0.8,0.5,1.9,0.3,2.7-0.1
					C216.3,51.3,216.2,51.1,216.1,51.1L216.1,51.1z"/>
			</g>
			<g>
				<path fill="#362C25" d="M234.4,56.2c-1.1-1.2-1.6-2.7-1-4.3c0.3-1,1-1.7,1.4-2.7c0.5-1.2,0.7-2.7-0.4-3.6
					c-0.2-0.2-0.5,0-0.3,0.3c1.5,2.7-1.3,4.4-1.5,6.9c-0.1,1.4,0.5,2.8,1.7,3.6C234.4,56.6,234.6,56.3,234.4,56.2L234.4,56.2z"/>
			</g>
			<g>
				<path fill="#362C25" d="M234.5,45.9c1.3,2.5,3,8.6-0.4,10.4c-0.2,0.1-0.1,0.5,0.2,0.4c1.7-0.4,2-2.5,2.1-4
					C236.7,50.3,236.1,47.8,234.5,45.9C234.6,45.8,234.5,45.8,234.5,45.9L234.5,45.9z"/>
			</g>
			<g>
				<path fill="#362C25" d="M257.6,57.2c-1.4,3.4,3.4,5.6,2.3,9.1c-0.1,0.2,0.3,0.4,0.4,0.2c1.8-3.3-3.1-5.8-2.5-9.2
					C257.8,57.1,257.6,57.1,257.6,57.2L257.6,57.2z"/>
			</g>
			<g>
				<path fill="#362C25" d="M260.5,66.3c-0.3-2.2,1.7-3.9,0.7-6.1c-0.7-1.4-2.2-2.4-3.7-2.9c-0.2-0.1-0.3,0.2-0.1,0.3
					c1.9,1.3,4.3,2.4,3.4,5.2c-0.4,1.3-1,2.2-0.5,3.5C260.4,66.5,260.6,66.5,260.5,66.3L260.5,66.3z"/>
			</g>
			<g>
				<path fill="#362C25" d="M257.5,58.2c0.5,0.9,1,1.7,1.5,2.5c0.5,0.8,0.8,1.8,1.4,2.6c0.2,0.2,0.6,0.1,0.5-0.2
					c-0.3-0.9-0.8-1.8-1.4-2.7c-0.5-0.8-1.1-1.7-1.7-2.4C257.6,57.9,257.4,58.1,257.5,58.2L257.5,58.2z"/>
			</g>
			<g>
				<path fill="#362C25" d="M260.7,63.6c1-2.2,0-4.7-2.4-5.4c-0.3-0.1-0.5,0.2-0.4,0.5c0.7,0.9,1.3,1.9,1.9,2.9
					c0.2,0.3,0.7,0,0.5-0.3c-0.4-0.8-0.9-1.5-1.3-2.3c-0.2,0.1-0.3,0.2-0.5,0.4c0.7,0.7,1.2,1.4,1.4,2.4c0.2-0.1,0.4-0.2,0.6-0.2
					c-0.5-1.1-1.2-2-2.1-2.8c-0.2-0.2-0.6-0.1-0.5,0.2c0.1,1.2,0.6,2.2,1.4,3.1c0.3,0.3,0.7-0.1,0.4-0.4c-0.7-0.8-1.1-1.7-1.4-2.8
					c-0.2,0.1-0.4,0.2-0.6,0.2c0.6,1.2,1.2,2.3,1.8,3.5c0.2,0.4,0.7,0,0.5-0.3c-0.6-1.4-1.2-2.7-1.9-4c-0.1,0.1-0.2,0.3-0.3,0.4
					c2,0.5,2,2.8,1.9,4.4c0,0.4,0.5,0.3,0.5,0c0.1-0.8,0-1.5-0.2-2.3c-0.1,0.1-0.3,0.2-0.4,0.2c0.1,0.4,0.2,0.7,0.3,1.1
					c0.1,0,0.2-0.1,0.4-0.1c-0.3-0.4-0.7-0.8-1-1.2c-0.1-0.1-0.4,0-0.3,0.2c0.3,0.4,0.6,0.8,0.9,1.2c0.1,0.1,0.4,0.2,0.4-0.1
					c0.1-0.6,0-1-0.3-1.5c-0.2-0.2-0.5-0.1-0.4,0.2c0.2,0.7,0.2,1.5,0.1,2.2c0.2,0,0.4,0,0.5,0c0.1-1.9-0.1-4.3-2.3-4.9
					c-0.2-0.1-0.4,0.2-0.3,0.4c0.6,1.4,1.2,2.7,1.8,4.1c0.2-0.1,0.3-0.2,0.5-0.3c-0.6-1.2-1.2-2.3-1.8-3.5c-0.2-0.3-0.6-0.1-0.6,0.2
					c0.3,1.2,0.8,2.1,1.6,3c0.1-0.1,0.3-0.3,0.4-0.4c-0.7-0.7-1.2-1.6-1.2-2.6c-0.2,0.1-0.3,0.1-0.5,0.2c0.9,0.8,1.5,1.7,2,2.7
					c0.1,0.3,0.6,0.1,0.6-0.2c-0.2-1.1-0.7-2-1.5-2.7c-0.3-0.2-0.6,0.1-0.5,0.4c0.4,0.8,0.9,1.5,1.3,2.3c0.2-0.1,0.3-0.2,0.5-0.3
					c-0.6-1-1.3-1.9-1.9-2.9c-0.1,0.2-0.2,0.3-0.4,0.5c1.9,0.7,2.8,2.7,2.2,4.7C260.3,63.7,260.6,63.8,260.7,63.6L260.7,63.6z"/>
			</g>
			<g>
				<path fill="#362C25" d="M234.5,55.6c-0.6-1.2-0.6-2.4-0.2-3.7c-0.2-0.1-0.4-0.1-0.6-0.2c-0.3,1-0.4,1.8-0.2,2.8
					c0.2-0.1,0.4-0.1,0.6-0.2c-0.2-0.8-0.1-1.5,0.1-2.3c-0.2,0-0.4-0.1-0.6-0.1c0,0.9-0.1,1.7-0.4,2.5c0.2,0,0.4,0,0.6,0
					c-0.3-0.9-0.3-1.6,0.1-2.5c-0.2,0-0.4-0.1-0.6-0.1c0.1,0.7,0,1.3-0.4,1.9c0.2,0,0.4,0.1,0.6,0.1c0-0.2-0.1-0.5-0.1-0.7
					c0.6-0.6,0.8-0.7,0.7-0.2c0.1,0.4-0.2,1.4-0.3,1.8c0.2,0.1,0.4,0.1,0.6,0.2c0.2-0.9,0.4-1.8,0.6-2.7c-0.2,0-0.4-0.1-0.6-0.1
					c0,1.1-0.1,2.1-0.4,3.1c0.2,0.1,0.4,0.1,0.6,0.2c0.3-1.2,0.6-2.5,0.9-3.7c-0.2,0-0.4-0.1-0.6-0.1c-0.1,1.2-0.2,2.5-0.4,3.7
					c0,0.3,0.5,0.5,0.6,0.2c0.8-1.8,1-3.5,0.7-5.5c-0.1-0.4-0.7-0.3-0.7,0.1c0.1,1.6,0,3.2-0.3,4.9c0.2,0,0.4,0.1,0.6,0.1
					c0.1-1.6,0.2-3.2,0.1-4.8c0-0.3-0.5-0.4-0.6-0.1c-0.2,0.8-0.6,1.5-1,2.2c0.2,0.1,0.4,0.2,0.6,0.2c0.1-0.9,0.4-1.6,0.8-2.4
					c0.2-0.4-0.3-0.6-0.5-0.3c-0.4,0.6-0.8,1.1-1.2,1.7c0.2,0.1,0.4,0.2,0.6,0.2c0.3-0.8,0.6-1.5,1.1-2.2c-0.2-0.1-0.3-0.2-0.5-0.3
					c-0.4,0.7-0.8,1.3-1.1,2c0.2,0.1,0.3,0.1,0.5,0.2c0.2-0.8,0.5-1.2,1-1.8c-0.1-0.1-0.3-0.1-0.4-0.2c-0.1,0.5-0.1,0.9-0.2,1.4
					c0,0.3,0.4,0.4,0.4,0.1c0.1-0.8,0.3-1.6,0.4-2.4c-0.1,0-0.3,0-0.4,0c0.1,0.4,0.2,0.9,0.3,1.3c0.1,0.3,0.5,0.2,0.5-0.1
					c-0.1-0.5-0.2-1.1-0.3-1.6c-0.1,0-0.3,0.1-0.4,0.1c0.1,0.2,0.2,0.5,0.2,0.7c0.1,0.2,0.5,0.2,0.4-0.1c0-0.3-0.1-0.7-0.1-1
					c-0.1,0-0.3,0-0.4,0.1c0.8,2.5,0.6,5-0.4,7.3c-0.1,0.3,0.3,0.6,0.5,0.3c0.6-1.1,0.8-2.1,0.8-3.3c0-0.4-0.5-0.4-0.6,0
					c-0.1,0.5,0,1.1-0.2,1.5c0,0.2,0,0.3-0.1,0.5c-1.1,0.4-1.5,0.2-1.2-0.5c-0.2,0-0.4,0-0.6,0.1c0.2,0.6,0.5,1.3,0.7,1.9
					c0.1,0.3,0.6,0.2,0.5-0.1c-0.2-0.6-0.4-1.1-0.6-1.7c-0.1-0.3-0.6-0.2-0.5,0.1c0.2,0.6,0.4,1.1,0.5,1.7c0.2,0,0.3-0.1,0.5-0.1
					c-0.2-0.6-0.4-1.3-0.7-1.9c-0.1-0.3-0.5-0.3-0.6,0.1c-0.1,0.8,0.2,2.6,1.5,2.3c1.2-0.3,1-2.9,1.1-3.8c-0.2,0-0.4,0-0.6,0
					c0,1.1-0.2,2.1-0.7,3c0.2,0.1,0.3,0.2,0.5,0.3c1.1-2.5,1.2-5.1,0.4-7.7c-0.1-0.2-0.5-0.2-0.4,0.1c0,0.3,0,0.7,0.1,1
					c0.1,0,0.3,0,0.4-0.1c-0.1-0.2-0.2-0.5-0.2-0.7c-0.1-0.3-0.5-0.2-0.4,0.1c0.1,0.5,0.2,1.1,0.3,1.6c0.2,0,0.3-0.1,0.5-0.1
					c-0.1-0.4-0.2-0.9-0.3-1.3c-0.1-0.2-0.4-0.2-0.4,0c-0.1,0.8-0.3,1.6-0.4,2.4c0.1,0,0.3,0.1,0.4,0.1c0.1-0.5,0.1-1,0.2-1.4
					c0-0.2-0.2-0.4-0.4-0.2c-0.5,0.6-0.9,1.3-1.1,2c-0.1,0.3,0.3,0.5,0.5,0.2c0.4-0.7,0.8-1.3,1.2-2c0.2-0.3-0.3-0.5-0.5-0.3
					c-0.5,0.7-0.9,1.4-1.2,2.3c-0.1,0.3,0.4,0.5,0.6,0.2c0.4-0.6,0.8-1.1,1.2-1.7c-0.2-0.1-0.4-0.2-0.5-0.3
					c-0.4,0.8-0.7,1.6-0.8,2.6c-0.1,0.3,0.4,0.5,0.6,0.2c0.5-0.8,0.8-1.5,1.1-2.4c-0.2,0-0.4-0.1-0.6-0.1c0.1,1.6,0.1,3.2-0.1,4.8
					c0,0.4,0.6,0.4,0.6,0.1c0.3-1.7,0.4-3.3,0.3-5c-0.2,0-0.4,0.1-0.7,0.1c0.2,1.7,0,3.4-0.7,5c0.2,0.1,0.4,0.1,0.6,0.2
					c0.1-1.2,0.2-2.4,0.4-3.7c0-0.4-0.6-0.4-0.6-0.1c-0.3,1.2-0.6,2.5-0.9,3.7c-0.1,0.4,0.5,0.6,0.6,0.2c0.3-1.1,0.4-2.1,0.4-3.3
					c0-0.3-0.5-0.4-0.6-0.1c-0.2,0.9-0.4,1.8-0.6,2.8c-0.1,0.4,0.5,0.5,0.6,0.2c0.2-0.7,1-3.6-0.3-3.7c-1.3-0.1-1.4,2.1-1.1,2.8
					c0.1,0.3,0.5,0.3,0.6,0.1c0.4-0.8,0.6-1.5,0.4-2.4c0-0.3-0.5-0.3-0.6-0.1c-0.5,1-0.5,1.9-0.2,3c0.1,0.3,0.5,0.3,0.6,0
					c0.3-0.9,0.4-1.8,0.4-2.7c0-0.4-0.5-0.4-0.6-0.1c-0.3,0.9-0.3,1.7-0.1,2.7c0.1,0.4,0.7,0.2,0.6-0.2c-0.2-0.9-0.1-1.7,0.1-2.5
					c0.1-0.4-0.4-0.5-0.6-0.2c-0.5,1.4-0.4,2.7,0.4,4.1C234.3,56,234.6,55.8,234.5,55.6L234.5,55.6z"/>
			</g>
			<g>
				<path fill="#362C25" d="M220.7,65.8c0.8,1.3,2.2,2.9,3.7,3.3c0.2,0.1,0.3-0.3,0.2-0.4c-0.7-0.5-1.4-0.8-2.1-1.4
					c-0.6-0.5-1.1-1.1-1.6-1.7C220.8,65.5,220.6,65.7,220.7,65.8L220.7,65.8z"/>
			</g>
			<g>
				<path fill="#362C25" d="M224.6,68.8c0.1-1.6-1.7-3.7-3.4-3.2c-0.2,0.1-0.2,0.4,0,0.4c0.8,0.2,1.4,0.2,2.1,0.7
					c0.7,0.5,1,1.2,1.2,2.1C224.4,69,224.6,68.9,224.6,68.8L224.6,68.8z"/>
			</g>
			<g>
				<path fill="#362C25" d="M221.4,66.2c0.9,0.5,1.7,1.1,2.2,2c0.1-0.1,0.3-0.3,0.4-0.4c-0.6-0.4-1.2-0.9-1.7-1.5
					c-0.1,0.2-0.1,0.3-0.2,0.5c0.5,0,1,0.3,1.2,0.8c0.1-0.2,0.2-0.3,0.3-0.5c-0.6-0.1-1-0.4-1.2-0.9c-0.1,0.2-0.2,0.3-0.3,0.5
					c0.5,0.1,0.9,0.3,1.1,0.7c0.1-0.1,0.2-0.3,0.2-0.4c-0.5,0-0.9-0.4-1-0.9c-0.1,0.1-0.2,0.2-0.3,0.3c0.4,0.1,0.8,0.3,1.1,0.6
					c0.2,0.1,0.5,0,0.3-0.3c-0.3-0.5-0.8-0.7-1.3-0.9c-0.2-0.1-0.4,0.1-0.3,0.3c0.1,0.8,0.7,1.3,1.5,1.3c0.2,0,0.4-0.2,0.2-0.4
					c-0.4-0.6-0.9-0.9-1.6-1c-0.2,0-0.3,0.3-0.3,0.5c0.3,0.7,1,1.1,1.7,1.2c0.3,0,0.3-0.3,0.3-0.5c-0.3-0.7-0.9-1.1-1.7-1.1
					c-0.3,0-0.4,0.3-0.2,0.5c0.5,0.6,1.2,1.1,1.9,1.5c0.2,0.1,0.5-0.1,0.4-0.4c-0.6-0.9-1.5-1.6-2.5-2
					C221.3,65.9,221.2,66.2,221.4,66.2L221.4,66.2z"/>
			</g>
			<g>
				<path fill="#362C25" d="M221.6,66.4c0.7,0.6,1.4,1.1,2.1,1.6c0.2,0.1,0.3-0.1,0.2-0.3c-0.7-0.6-1.4-1.2-2.1-1.6
					C221.6,66,221.4,66.2,221.6,66.4L221.6,66.4z"/>
			</g>
			<g>
				<path fill="#362C25" d="M222.9,66.6c0.4,0.6,0.8,1.2,1.2,1.8c0.1-0.1,0.3-0.2,0.4-0.2c-0.3-0.5-0.6-1-0.8-1.5
					c-0.1,0.1-0.2,0.1-0.4,0.2c0.3,0.3,0.4,0.6,0.5,1c0.1,0,0.2-0.1,0.4-0.1c-0.7-0.6-1.4-1.2-2.2-1.7c-0.1-0.1-0.2-0.1-0.2,0
					c-0.3,0.2-0.4,0.5-0.2,0.8c0.1,0.1,0.3,0,0.3-0.1c0-0.1,0-0.2,0.1-0.3c-0.1,0-0.2,0-0.2,0c0.7,0.6,1.4,1.2,2.2,1.7
					c0.1,0.1,0.4,0,0.4-0.1c0-0.5-0.2-0.9-0.6-1.3c-0.1-0.2-0.4,0-0.4,0.2c0.2,0.6,0.4,1.1,0.8,1.6c0.2,0.2,0.6,0,0.4-0.2
					c-0.4-0.6-0.9-1.2-1.3-1.8C223.1,66.2,222.8,66.4,222.9,66.6L222.9,66.6z"/>
			</g>
		</g>
	</g>
	<g>
		<g>
			<g>
				<path fill="#362C25" d="M139.6,5.4c-1.3,2.9,3.8,4.2,4.2,1.1c0.2-1.7-0.7-3.4-2.3-4.1c-1.7-0.7-3.9-0.2-5.3,1.1
					c-3.4,3.5,0.3,8.9,4.6,8.8c4.2-0.1,5-3.7,7.9-5.7c1.5-1,3.6-1.3,5.2-0.3c2.8,1.8,2.2,7.5-1.8,6.7c-2.8-0.6-0.9-4.2,0.6-2.4
					c0.2,0.2-0.1,0.6-0.4,0.5c3.1-0.6,3.4-1.9,1.1-4c-1.4-0.8-2.6-0.7-3.8,0.1c-1.1,0.6-1.7,1.3-2.5,2.2c-0.8,1-1.6,2-2.8,2.7
					c-2,1.2-4.6,1.4-6.7,0.4c-4-1.9-5.1-7.9-1.1-10.4c3.4-2.1,9.8,0.5,7.6,5.1c-1.7,3.5-7.1,1.3-5.1-2.1
					C139.5,5.1,139.7,5.2,139.6,5.4L139.6,5.4z"/>
			</g>
			<g>
				<path fill="#362C25" d="M128.4,5.3c2.1,3.5-3.4,5.6-5.1,2.1c-2.2-4.6,4.3-7.2,7.6-5.1c4,2.5,2.9,8.5-1.1,10.4
					c-2.1,1-4.7,0.7-6.7-0.4c-1.1-0.7-1.9-1.7-2.8-2.7c-0.5-0.6-0.9-1.2-1.5-1.7c-1.6-1.4-3.3-1.5-5.2-0.3c-1.8,1.9-1.3,3.1,1.6,3.6
					c-0.3,0.2-0.6-0.2-0.3-0.5c1.5-1.8,3.4,1.8,0.6,2.4c-3.9,0.9-4.6-4.9-1.8-6.7c1.6-1,3.7-0.7,5.2,0.3c2.9,2,3.7,5.6,7.9,5.7
					c4.1,0.1,7.6-4.7,4.9-8.3c-1.1-1.5-3.2-2.3-5.1-1.8c-1.5,0.4-3.7,2.5-2.8,4.3c0.6,0.6,1.2,1.2,1.8,1.9c2.1-0.1,2.9-1.1,2.3-3
					C128,5.2,128.3,5.1,128.4,5.3L128.4,5.3z"/>
			</g>
		</g>
		<g>
			<path fill="#362C25" d="M132.7,15.1c-0.7-0.9-0.8-2.3,0.2-3c0.9-0.7,2.2-0.6,2.8,0.4c0.6,0.9,0.5,2.2-0.4,2.8
				c-0.9,0.7-2.2,0.4-2.8-0.6c-0.2-0.3,0.2-0.6,0.5-0.4c0.5,0.4,1.3,0.6,1.8,0.3c0.5-0.4,0.6-1.2,0.3-1.7c-0.4-0.6-1.2-0.6-1.7-0.3
				c-0.8,0.5-0.6,1.6-0.4,2.4C133,15.1,132.8,15.2,132.7,15.1L132.7,15.1z"/>
		</g>
		<g>
			<g>
				<path fill="#362C25" d="M137.3,13.3c9.4-0.6,19-0.3,28.5-0.3c4.7,0,9.3,0,14,0c4.8,0,9.7-0.3,14.5,0.1c0.4,0,0.4,0.6,0,0.6
					c-4.8,0.4-9.7,0.1-14.5,0.1c-4.7,0-9.3,0-14,0c-9.5,0-19,0.3-28.5-0.3C137.1,13.6,137.1,13.3,137.3,13.3L137.3,13.3z"/>
			</g>
			<g>
				<path fill="#362C25" d="M194.2,13.6c2.2,1.4,5.8,1.3,7.3,3.6c1.2,1.8,0.2,4.3-2,4.7c-1.7,0.3-4-1.5-2.5-3.2
					c1.1-1.2,3.1-0.1,2.3,1.4c-0.1,0.2-0.5,0.1-0.5-0.1c-0.3,2.4,2,0.4,2.3-0.5c0.2-0.6,0-1.4-0.3-2c-0.6-1-1.9-1.5-3-1.9
					c-1.4-0.5-2.8-0.8-3.8-1.9C193.9,13.6,194,13.5,194.2,13.6L194.2,13.6z"/>
			</g>
			<g>
				<path fill="#362C25" d="M194.7,13.4c2.8,2.6,6-1,9.1-0.2c1.3,0.3,2.2,1.2,2.3,2.5c0.1,0.4-0.6,0.4-0.7,0.1
					c-1.4-4.5-8.3,1.5-11-2.2C194.4,13.4,194.6,13.3,194.7,13.4L194.7,13.4z"/>
			</g>
			<g>
				<path fill="#362C25" d="M194.3,12.9c2.1,1.2,3.2-2.2,4.7-3c1-0.5,2.1-0.3,2.8,0.6c0.3,0.4-0.3,0.8-0.6,0.5
					c-2.2-1.9-4.4,4.9-7.1,2.2C193.9,13.1,194.1,12.8,194.3,12.9L194.3,12.9z"/>
			</g>
			<g>
				<path fill="#362C25" d="M194,13.9c-0.6-1-0.2-2.4,0.9-2.9c1.1-0.5,2.7,0.1,2.9,1.3c0,0.2-0.3,0.5-0.5,0.3c-0.5-0.6-1.2-1.2-2-1
					c-0.9,0.3-1.3,1.4-1.1,2.2C194.3,14,194.1,14.1,194,13.9L194,13.9z"/>
			</g>
			<g>
				<path fill="#362C25" d="M194.6,13.1c-0.3,1.6,1.6,2.1,2.2,3.4c0.3,0.7,0.3,1.4-0.3,1.9c-0.3,0.2-0.7-0.1-0.5-0.4
					c1.1-1.9-3-3-1.7-5C194.4,12.9,194.6,12.9,194.6,13.1L194.6,13.1z"/>
			</g>
		</g>
		<g>
			<g>
				<path fill="#362C25" d="M130.5,13.6c-9.4,0.6-19,0.3-28.5,0.3c-4.7,0-9.3,0-14,0c-4.8,0-9.7,0.3-14.5-0.1c-0.4,0-0.4-0.6,0-0.6
					C78.3,12.7,83.2,13,88,13c4.7,0,9.3,0,14,0c9.5,0,19-0.3,28.5,0.3C130.7,13.3,130.7,13.6,130.5,13.6L130.5,13.6z"/>
			</g>
			<g>
				<path fill="#362C25" d="M73.7,13.7c-1.1,1.1-2.5,1.4-3.8,1.9c-1,0.4-2,0.8-2.7,1.6c-0.5,0.6-0.8,1.5-0.5,2.2
					c0.4,0.9,2.6,3,2.3,0.5c0,0.3-0.4,0.4-0.5,0.1c-0.7-1.5,1.2-2.6,2.3-1.4c1.6,1.7-0.8,3.5-2.5,3.2c-2.1-0.4-3.1-2.7-2.1-4.5
					c1.5-2.5,5.2-2.4,7.4-3.8C73.7,13.5,73.8,13.6,73.7,13.7L73.7,13.7z"/>
			</g>
			<g>
				<path fill="#362C25" d="M73.2,13.6c-2.7,3.7-9.6-2.3-11,2.2c-0.1,0.4-0.7,0.2-0.7-0.2c0.2-1.3,1.1-2.2,2.4-2.4
					c3.1-0.7,6.2,2.9,9,0.2C73.1,13.3,73.3,13.4,73.2,13.6L73.2,13.6z"/>
			</g>
			<g>
				<path fill="#362C25" d="M73.7,13.2c-2.6,2.7-4.9-4.1-7.1-2.2c-0.3,0.3-0.9-0.1-0.6-0.5c0.7-1,1.7-1.1,2.8-0.6
					c1.5,0.8,2.6,4.2,4.7,3C73.6,12.8,73.8,13.1,73.7,13.2L73.7,13.2z"/>
			</g>
			<g>
				<path fill="#362C25" d="M73.5,13.8c0.2-0.9-0.2-2-1.1-2.2c-0.9-0.2-1.5,0.4-2,1c-0.2,0.2-0.5,0-0.5-0.3c0.2-1.3,1.8-1.8,2.9-1.3
					c1.1,0.5,1.5,1.9,0.9,2.9C73.7,14.1,73.5,14,73.5,13.8L73.5,13.8z"/>
			</g>
			<g>
				<path fill="#362C25" d="M73.4,13c1.3,2.1-2.8,3.1-1.7,5c0.2,0.3-0.2,0.6-0.5,0.4c-0.6-0.5-0.6-1.3-0.3-1.9
					c0.6-1.2,2.5-1.7,2.2-3.4C73.1,12.9,73.3,12.9,73.4,13L73.4,13z"/>
			</g>
		</g>
	</g>
	<g>
		<g>
			<g>
				<path fill="#362C25" d="M128.1,90.9c1.3-2.9-3.8-4.2-4.2-1.1c-0.2,1.7,0.7,3.4,2.3,4.1c1.7,0.7,3.9,0.2,5.3-1.1
					c3.4-3.5-0.3-8.9-4.6-8.8c-4.2,0.1-5,3.7-7.9,5.7c-1.5,1-3.6,1.3-5.2,0.3c-2.8-1.8-2.2-7.5,1.8-6.7c2.8,0.6,0.9,4.2-0.6,2.4
					c-0.2-0.2,0.1-0.6,0.4-0.5c-3.1,0.6-3.4,1.9-1.1,4c1.4,0.8,2.6,0.7,3.8-0.1c1.1-0.6,1.7-1.3,2.5-2.2c0.8-1,1.6-2,2.8-2.7
					c2-1.2,4.6-1.4,6.7-0.4c4,1.9,5.1,7.9,1.1,10.4c-3.4,2.1-9.8-0.5-7.6-5.1c1.7-3.5,7.1-1.3,5.1,2.1
					C128.3,91.3,128,91.1,128.1,90.9L128.1,90.9z"/>
			</g>
			<g>
				<path fill="#362C25" d="M139.3,91.1c-2.1-3.5,3.4-5.6,5.1-2.1c2.2,4.6-4.3,7.2-7.6,5.1c-4-2.5-2.9-8.5,1.1-10.4
					c2.1-1,4.7-0.7,6.7,0.4c1.1,0.7,1.9,1.7,2.8,2.7c0.5,0.6,0.9,1.2,1.5,1.7c1.6,1.4,3.3,1.5,5.2,0.3c1.8-1.9,1.3-3.1-1.6-3.6
					c0.3-0.2,0.6,0.2,0.3,0.5c-1.5,1.8-3.4-1.8-0.6-2.4c3.9-0.9,4.6,4.9,1.8,6.7c-1.6,1-3.7,0.7-5.2-0.3c-2.9-2-3.7-5.6-7.9-5.7
					c-4.1-0.1-7.6,4.7-4.9,8.3c1.1,1.5,3.2,2.3,5.1,1.8c1.5-0.4,3.7-2.5,2.8-4.3c-0.6-0.6-1.2-1.2-1.8-1.9c-2.1,0.1-2.9,1.1-2.3,3
					C139.8,91.1,139.5,91.3,139.3,91.1L139.3,91.1z"/>
			</g>
		</g>
		<g>
			<path fill="#362C25" d="M135,81.3c0.7,0.9,0.8,2.3-0.2,3c-0.9,0.7-2.2,0.6-2.8-0.4c-0.6-0.9-0.5-2.2,0.4-2.8
				c0.9-0.7,2.2-0.4,2.8,0.6c0.2,0.3-0.2,0.6-0.5,0.4c-0.5-0.4-1.3-0.6-1.8-0.3c-0.5,0.4-0.6,1.2-0.3,1.7c0.4,0.6,1.2,0.6,1.7,0.3
				c0.8-0.5,0.6-1.6,0.4-2.4C134.8,81.3,134.9,81.2,135,81.3L135,81.3z"/>
		</g>
		<g>
			<g>
				<path fill="#362C25" d="M130.5,83.1c-9.4,0.6-19,0.3-28.5,0.3c-4.7,0-9.3,0-14,0c-4.8,0-9.7,0.3-14.5-0.1c-0.4,0-0.4-0.6,0-0.6
					c4.8-0.4,9.7-0.1,14.5-0.1c4.7,0,9.3,0,14,0c9.5,0,19-0.3,28.5,0.3C130.7,82.8,130.7,83.1,130.5,83.1L130.5,83.1z"/>
			</g>
			<g>
				<path fill="#362C25" d="M73.6,82.8c-2.2-1.4-5.8-1.3-7.3-3.6c-1.2-1.8-0.2-4.3,2-4.7c1.7-0.3,4,1.5,2.5,3.2
					c-1.1,1.2-3.1,0.1-2.3-1.4c0.1-0.2,0.5-0.1,0.5,0.1c0.3-2.4-2-0.4-2.3,0.5c-0.2,0.6,0,1.4,0.3,2c0.6,1,1.9,1.5,3,1.9
					c1.4,0.5,2.8,0.8,3.8,1.9C73.8,82.7,73.7,82.9,73.6,82.8L73.6,82.8z"/>
			</g>
			<g>
				<path fill="#362C25" d="M73,83c-2.8-2.6-6,1-9.1,0.2c-1.3-0.3-2.2-1.2-2.3-2.5c-0.1-0.4,0.6-0.4,0.7-0.1c1.4,4.5,8.3-1.5,11,2.2
					C73.3,82.9,73.1,83.1,73,83L73,83z"/>
			</g>
			<g>
				<path fill="#362C25" d="M73.4,83.5c-2.1-1.2-3.2,2.2-4.7,3c-1,0.5-2.1,0.3-2.8-0.6c-0.3-0.4,0.3-0.8,0.6-0.5
					c2.2,1.9,4.4-4.9,7.1-2.2C73.8,83.3,73.6,83.6,73.4,83.5L73.4,83.5z"/>
			</g>
			<g>
				<path fill="#362C25" d="M73.8,82.4c0.6,1,0.2,2.4-0.9,2.9c-1.1,0.5-2.7-0.1-2.9-1.3c0-0.2,0.3-0.5,0.5-0.3c0.5,0.6,1.2,1.2,2,1
					c0.9-0.3,1.3-1.4,1.1-2.2C73.5,82.4,73.7,82.3,73.8,82.4L73.8,82.4z"/>
			</g>
			<g>
				<path fill="#362C25" d="M73.2,83.3c0.3-1.6-1.6-2.1-2.2-3.4c-0.3-0.7-0.3-1.4,0.3-1.9c0.3-0.2,0.7,0.1,0.5,0.4
					c-1.1,1.9,3,3,1.7,5C73.4,83.5,73.2,83.4,73.2,83.3L73.2,83.3z"/>
			</g>
		</g>
		<g>
			<g>
				<path fill="#362C25" d="M137.3,82.8c9.4-0.6,19-0.3,28.5-0.3c4.7,0,9.3,0,14,0c4.8,0,9.7-0.3,14.5,0.1c0.4,0,0.4,0.6,0,0.6
					c-4.8,0.4-9.7,0.1-14.5,0.1c-4.7,0-9.3,0-14,0c-9.5,0-19,0.3-28.5-0.3C137.1,83.1,137.1,82.8,137.3,82.8L137.3,82.8z"/>
			</g>
			<g>
				<path fill="#362C25" d="M194,82.6c1.1-1.1,2.5-1.4,3.8-1.9c1-0.4,2-0.8,2.7-1.6c0.5-0.6,0.8-1.5,0.5-2.2c-0.4-0.9-2.6-3-2.3-0.5
					c0-0.3,0.4-0.4,0.5-0.1c0.7,1.5-1.2,2.6-2.3,1.4c-1.6-1.7,0.8-3.5,2.5-3.2c2.1,0.4,3.1,2.7,2.1,4.5c-1.5,2.5-5.2,2.4-7.4,3.8
					C194.1,82.9,193.9,82.7,194,82.6L194,82.6z"/>
			</g>
			<g>
				<path fill="#362C25" d="M194.5,82.8c2.7-3.7,9.6,2.3,11-2.2c0.1-0.4,0.7-0.2,0.7,0.2c-0.2,1.3-1.1,2.2-2.4,2.4
					c-3.1,0.7-6.2-2.9-9-0.2C194.6,83.1,194.4,82.9,194.5,82.8L194.5,82.8z"/>
			</g>
			<g>
				<path fill="#362C25" d="M194.1,83.1c2.6-2.7,4.9,4.1,7.1,2.2c0.3-0.3,0.9,0.1,0.6,0.5c-0.7,1-1.7,1.1-2.8,0.6
					c-1.5-0.8-2.6-4.2-4.7-3C194.1,83.6,193.9,83.3,194.1,83.1L194.1,83.1z"/>
			</g>
			<g>
				<path fill="#362C25" d="M194.2,82.5c-0.2,0.9,0.2,2,1.1,2.2c0.9,0.2,1.5-0.4,2-1c0.2-0.2,0.5,0,0.5,0.3
					c-0.2,1.3-1.8,1.8-2.9,1.3c-1.1-0.5-1.5-1.9-0.9-2.9C194.1,82.3,194.3,82.4,194.2,82.5L194.2,82.5z"/>
			</g>
			<g>
				<path fill="#362C25" d="M194.3,83.4c-1.3-2.1,2.8-3.1,1.7-5c-0.2-0.3,0.2-0.6,0.5-0.4c0.6,0.5,0.6,1.3,0.3,1.9
					c-0.6,1.2-2.5,1.7-2.2,3.4C194.6,83.4,194.4,83.5,194.3,83.4L194.3,83.4z"/>
			</g>
		</g>
	</g>
</g>
</svg>
